<svg width="48" height="48" viewBox="0 0 48 48" fill="none" xmlns="http://www.w3.org/2000/svg">
<path d="M45.2569 43.4063C45.0723 43.637 44.844 43.8291 44.5851 43.9716C44.3262 44.1142 44.0417 44.2043 43.748 44.2368C43.4543 44.2694 43.157 44.2438 42.8732 44.1614C42.5893 44.0791 42.3245 43.9416 42.0938 43.7569C42.0301 43.7063 34.9951 38.25 24.0001 38.25C13.0051 38.25 5.96819 43.7063 5.89881 43.7606C5.43236 44.1336 4.83686 44.306 4.24331 44.2399C3.64975 44.1738 3.10677 43.8746 2.73381 43.4081C2.36085 42.9417 2.18846 42.3462 2.25457 41.7526C2.32067 41.1591 2.61986 40.6161 3.08631 40.2431C3.39006 39.9994 10.1307 34.7063 21.0582 33.8681C20.6095 31.7387 20.4636 29.5565 20.6251 27.3863C20.9382 23.4881 22.4776 18.4031 27.5626 14.3025C27.1464 14.2618 26.7281 14.2474 26.3101 14.2594C23.0851 14.3644 21.1332 16.2038 20.1713 20.0494C20.0494 20.5336 19.7699 20.9635 19.3768 21.2714C18.9837 21.5793 18.4994 21.7476 18.0001 21.75C17.8155 21.7504 17.6315 21.7278 17.4526 21.6825C16.8738 21.5377 16.3762 21.169 16.0692 20.6574C15.7623 20.1458 15.6711 19.5332 15.8157 18.9544C16.6519 15.6188 19.1082 9.98813 26.1769 9.76688C27.1058 9.74221 28.0349 9.80498 28.9519 9.95438C28.3013 9.0375 27.4876 8.2275 26.4994 7.81875C24.9469 7.17563 22.9876 7.56938 20.6757 8.98688C20.4233 9.14139 20.143 9.24467 19.8507 9.29084C19.5584 9.337 19.2598 9.32514 18.9721 9.25593C18.6844 9.18672 18.4131 9.06152 18.1738 8.88748C17.9345 8.71343 17.7318 8.49395 17.5772 8.24157C17.4227 7.98918 17.3195 7.70884 17.2733 7.41654C17.2271 7.12424 17.239 6.82571 17.3082 6.53799C17.3774 6.25027 17.5026 5.97901 17.6767 5.73967C17.8507 5.50034 18.0702 5.29764 18.3226 5.14313C21.9413 2.92313 25.2807 2.42438 28.2469 3.66375C30.2082 4.48313 31.9276 6.08625 33.2626 8.32875C34.3613 6.98063 35.6476 6.045 37.0501 5.58938C40.1288 4.58625 42.9938 6.0525 44.8557 7.46438C45.0986 7.63978 45.3041 7.86193 45.46 8.11781C45.616 8.37369 45.7192 8.65814 45.7637 8.95446C45.8082 9.25078 45.7931 9.55301 45.7192 9.8434C45.6453 10.1338 45.5142 10.4065 45.3335 10.6455C45.1528 10.8846 44.9261 11.0851 44.6669 11.2353C44.4076 11.3856 44.121 11.4825 43.8237 11.5205C43.5265 11.5585 43.2247 11.5367 42.936 11.4564C42.6473 11.3762 42.3775 11.2391 42.1426 11.0531C40.6819 9.94875 39.4388 9.55313 38.4526 9.86813C37.5957 10.1438 36.8682 10.9313 36.3094 11.7788C37.3789 12.0779 38.4083 12.5054 39.3751 13.0519C42.2776 14.715 45.7501 18.2269 45.7501 25.5C45.7501 26.0967 45.513 26.669 45.0911 27.091C44.6691 27.513 44.0968 27.75 43.5001 27.75C42.9033 27.75 42.331 27.513 41.9091 27.091C41.4871 26.669 41.2501 26.0967 41.2501 25.5C41.2501 21.75 40.1007 19.0444 37.8357 17.4094C38.2523 18.9528 38.3453 20.5657 38.1088 22.1468C37.8723 23.7279 37.3114 25.243 36.4613 26.5969C36.3117 26.8624 36.1097 27.0948 35.8675 27.2799C35.6254 27.465 35.3482 27.599 35.0527 27.6737C34.7572 27.7484 34.4496 27.7623 34.1486 27.7146C33.8475 27.6668 33.5593 27.5584 33.3015 27.3959C33.0436 27.2334 32.8215 27.0202 32.6485 26.7693C32.4755 26.5183 32.3553 26.2348 32.2952 25.936C32.2351 25.6372 32.2364 25.3293 32.2989 25.031C32.3614 24.7327 32.4838 24.4502 32.6588 24.2006C33.2042 23.2978 33.556 22.2916 33.6919 21.2456C33.9132 19.5413 33.4913 17.9063 32.4432 16.3706C28.0163 19.0481 25.5582 22.8131 25.1307 27.5831C24.9629 29.6649 25.1448 31.7601 25.6688 33.7819C37.3369 34.29 44.5894 39.9825 44.9063 40.2356C45.1381 40.4203 45.3312 40.649 45.4744 40.9086C45.6176 41.1682 45.708 41.4534 45.7406 41.7481C45.7732 42.0427 45.7472 42.3409 45.6642 42.6254C45.5812 42.91 45.4428 43.1753 45.2569 43.4063ZM3.75006 27C3.75006 25.8133 4.10196 24.6533 4.76124 23.6666C5.42053 22.6799 6.3576 21.9109 7.45396 21.4567C8.55032 21.0026 9.75672 20.8838 10.9206 21.1153C12.0845 21.3468 13.1536 21.9182 13.9927 22.7574C14.8318 23.5965 15.4033 24.6656 15.6348 25.8295C15.8663 26.9933 15.7475 28.1997 15.2933 29.2961C14.8392 30.3925 14.0702 31.3295 13.0835 31.9888C12.0968 32.6481 10.9367 33 9.75006 33C8.15876 33 6.63264 32.3679 5.50742 31.2426C4.3822 30.1174 3.75006 28.5913 3.75006 27ZM8.25006 27C8.25006 27.2967 8.33803 27.5867 8.50286 27.8334C8.66768 28.08 8.90195 28.2723 9.17604 28.3858C9.45013 28.4994 9.75172 28.5291 10.0427 28.4712C10.3337 28.4133 10.6009 28.2704 10.8107 28.0607C11.0205 27.8509 11.1634 27.5836 11.2212 27.2926C11.2791 27.0017 11.2494 26.7001 11.1359 26.426C11.0223 26.1519 10.8301 25.9176 10.5834 25.7528C10.3367 25.588 10.0467 25.5 9.75006 25.5C9.35224 25.5 8.97071 25.658 8.6894 25.9393C8.4081 26.2206 8.25006 26.6022 8.25006 27Z" fill="#191919"/>
</svg>
