<svg width="48" height="48" viewBox="0 0 48 48" fill="none" xmlns="http://www.w3.org/2000/svg">
<path d="M45.545 1.79297L37.5206 4.47075C38.0399 7.87519 37.6509 11.7564 35.7304 15.9961C33.3391 21.2753 28.6098 27.1083 20.3995 33.4542L19.3448 32.0566C27.3888 25.8356 31.9026 20.201 34.1338 15.2753C35.7698 11.6632 36.1982 8.43216 35.8973 5.55469L16.0257 27.6622L13.9632 24.9317L12.5656 25.9864L14.7308 28.8516L14.7073 28.8692L17.9155 33.0849C17.9175 33.0833 17.919 33.0808 17.9211 33.0791L19.0287 34.544L19.1194 34.6728L19.7609 35.5137L17.7922 38.8095L19.2952 39.7087L21.5655 35.9062L21.8702 35.3994L21.8584 35.3848C35.8452 26.1038 48.4629 13.4061 45.545 1.79297ZM13.3153 29.9325C12.8595 30.2917 12.4093 30.658 11.9649 31.0312C12.2799 31.8956 12.6727 32.9743 13.0782 34.0988C13.3969 34.9822 13.7004 35.8372 13.9776 36.6211C14.812 35.7658 15.669 34.9567 16.5557 34.1953L13.3153 29.9325ZM10.5469 32.2646C9.85912 32.8843 9.18612 33.5203 8.52847 34.1719L10.8722 40.1338C11.4402 39.4283 12.0263 38.7377 12.63 38.0625C12.6252 38.0489 12.623 38.0381 12.6182 38.0244C12.2929 37.0954 11.8598 35.8882 11.4287 34.6935C11.1078 33.8034 10.8227 33.0229 10.5469 32.2646ZM7.18653 35.5431C6.39925 36.373 5.63429 37.2239 4.89247 38.0947L7.91028 44.121C8.47522 43.3035 9.04297 42.5076 9.62122 41.7393L7.18653 35.5431ZM3.6709 39.5713C3.06052 40.3306 2.46571 41.1022 1.88684 41.8857C2.09262 44.3973 4.30597 46.2078 6.20806 46.673C6.3995 46.3748 6.59272 46.0808 6.78509 45.7882L3.6709 39.5713Z" fill="#191919"/>
</svg>
