<svg width="20" height="26" viewBox="0 0 20 26" fill="none" xmlns="http://www.w3.org/2000/svg">
<g clip-path="url(#clip0_391_9844)">
<path fill-rule="evenodd" clip-rule="evenodd" d="M11.801 24.5316C11.2221 24.9115 10.8375 24.9793 10.153 24.9985C9.41335 25.0193 9.04058 24.8227 8.35571 24.5316C5.06001 23.1309 1.3156 16.5941 0.716202 13.4814C0.1168 10.3686 0.716221 6.78897 3.11291 4.14313C4.16124 2.89804 5.50939 1.96422 7.45695 1.34166C8.47434 1.01643 9.10447 1.00002 10.153 1C10.902 1 11.5353 1.10954 12.2502 1.34166C14.0477 1.92531 15.4551 2.74241 16.7442 4.14313C19.2547 6.87094 20.0398 10.0573 19.1409 13.4814C17.7925 18.6174 14.6469 22.6639 11.801 24.5316ZM3.41229 13.3257C2.06414 17.6836 7.30694 19.3956 8.65509 15.8159L3.41229 13.3257ZM11.2016 15.9716C12.8493 19.2399 17.7925 17.5279 16.4444 13.4814L11.2016 15.9716Z" fill="#8400FF"/>
<path d="M3.41229 13.3257C2.06414 17.6836 7.30694 19.3956 8.65509 15.8159L3.41229 13.3257Z" fill="#191919"/>
<path d="M11.2016 15.9716C12.8493 19.2399 17.7925 17.5279 16.4444 13.4814L11.2016 15.9716Z" fill="#191919"/>
<path fill-rule="evenodd" clip-rule="evenodd" d="M11.801 24.5316C11.2221 24.9115 10.8375 24.9793 10.153 24.9985C9.41335 25.0193 9.04058 24.8227 8.35571 24.5316C5.06001 23.1309 1.3156 16.5941 0.716202 13.4814C0.1168 10.3686 0.716221 6.78897 3.11291 4.14313C4.16124 2.89804 5.50939 1.96422 7.45695 1.34166C8.47434 1.01643 9.10447 1.00002 10.153 1C10.902 1 11.5353 1.10954 12.2502 1.34166C14.0477 1.92531 15.4551 2.74241 16.7442 4.14313C19.2547 6.87094 20.0398 10.0573 19.1409 13.4814C17.7925 18.6174 14.6469 22.6639 11.801 24.5316ZM3.41229 13.3257C2.06414 17.6836 7.30694 19.3956 8.65509 15.8159L3.41229 13.3257ZM11.2016 15.9716C12.8493 19.2399 17.7925 17.5279 16.4444 13.4814L11.2016 15.9716Z" stroke="#191919"/>
<path d="M3.41229 13.3257C2.06414 17.6836 7.30694 19.3956 8.65509 15.8159L3.41229 13.3257Z" stroke="#191919"/>
<path d="M11.2016 15.9716C12.8493 19.2399 17.7925 17.5279 16.4444 13.4814L11.2016 15.9716Z" stroke="#191919"/>
</g>
<defs>
<clipPath id="clip0_391_9844">
<rect width="20" height="26" fill="white"/>
</clipPath>
</defs>
</svg>
