<svg width="50" height="50" viewBox="0 0 50 50" fill="none" xmlns="http://www.w3.org/2000/svg">
<path d="M11.9779 25.6515C9.2106 34.3671 19.9721 37.7912 22.7394 30.6319L11.9779 25.6515Z" fill="#8400FF"/>
<path d="M27.9664 30.9431C31.3486 37.4799 41.4952 34.0559 38.728 25.9627L27.9664 30.9431Z" fill="#8400FF"/>
<path fill-rule="evenodd" clip-rule="evenodd" d="M29.1968 48.0632C28.0085 48.823 27.219 48.9586 25.8141 48.997C24.2958 49.0385 23.5307 48.6453 22.1249 48.0632C15.36 45.2617 7.67413 32.1882 6.44378 25.9627C5.21343 19.7373 6.44382 12.5779 11.3633 7.28625C13.5152 4.79609 16.2824 2.92844 20.2801 1.68332C22.3684 1.03287 23.6618 1.00004 25.8141 1C27.3515 1 28.6513 1.21907 30.1187 1.68332C33.8084 2.85062 36.6972 4.48481 39.3434 7.28625C44.4965 12.7419 46.1081 19.1147 44.2629 25.9627C41.4952 36.2347 35.0383 44.3279 29.1968 48.0632ZM11.9779 25.6515C9.2106 34.3671 19.9721 37.7912 22.7394 30.6319L11.9779 25.6515ZM27.9664 30.9431C31.3486 37.4799 41.4952 34.0559 38.728 25.9627L27.9664 30.9431Z" fill="#191919"/>
<path d="M11.9779 25.6515C9.2106 34.3671 19.9721 37.7912 22.7394 30.6319L11.9779 25.6515Z" stroke="#8400FF" stroke-width="2"/>
<path d="M27.9664 30.9431C31.3486 37.4799 41.4952 34.0559 38.728 25.9627L27.9664 30.9431Z" stroke="#8400FF" stroke-width="2"/>
<path fill-rule="evenodd" clip-rule="evenodd" d="M29.1968 48.0632C28.0085 48.823 27.219 48.9586 25.8141 48.997C24.2958 49.0385 23.5307 48.6453 22.1249 48.0632C15.36 45.2617 7.67413 32.1882 6.44378 25.9627C5.21343 19.7373 6.44382 12.5779 11.3633 7.28625C13.5152 4.79609 16.2824 2.92844 20.2801 1.68332C22.3684 1.03287 23.6618 1.00004 25.8141 1C27.3515 1 28.6513 1.21907 30.1187 1.68332C33.8084 2.85062 36.6972 4.48481 39.3434 7.28625C44.4965 12.7419 46.1081 19.1147 44.2629 25.9627C41.4952 36.2347 35.0383 44.3279 29.1968 48.0632ZM11.9779 25.6515C9.2106 34.3671 19.9721 37.7912 22.7394 30.6319L11.9779 25.6515ZM27.9664 30.9431C31.3486 37.4799 41.4952 34.0559 38.728 25.9627L27.9664 30.9431Z" stroke="#8400FF" stroke-width="2"/>
</svg>
