<svg width="48" height="48" viewBox="0 0 48 48" fill="none" xmlns="http://www.w3.org/2000/svg">
<path d="M32.3986 24.744C32.2036 25.164 32.1586 25.599 32.2786 25.989C32.6536 27.174 31.9786 29.004 30.4936 30.504C29.0086 31.989 27.1636 32.679 25.9786 32.289C25.5886 32.169 25.1536 32.199 24.7486 32.394H24.7336C24.3736 32.559 24.0586 32.844 23.8336 33.189C23.3986 33.879 22.5286 34.464 21.4786 34.704C20.3836 34.944 19.4086 34.734 18.9136 34.224C18.7881 34.0904 18.6373 33.9831 18.4699 33.9084C18.3025 33.8337 18.1218 33.7931 17.9386 33.789C15.2536 33.624 12.7486 32.619 10.8286 30.699C7.36359 27.234 6.83859 21.774 9.07359 16.959C9.43359 16.164 10.2286 15.624 11.0836 15.564C12.1036 15.504 13.6036 14.769 15.0136 13.569C16.4236 12.354 17.3986 10.989 17.6536 9.95399C17.8486 9.14399 18.4936 8.45399 19.3036 8.22899C23.4736 7.08899 27.7936 7.91399 30.7186 10.839C34.2286 14.349 34.7086 19.884 32.3986 24.744Z" fill="#191919"/>
<path d="M17.5021 2.478C23.3746 0.610496 29.6971 1.374 34.2976 5.1675L34.3501 5.115L40.3891 11.1735C48.4591 19.2435 48.4591 32.328 40.3891 40.413C32.3191 48.4845 19.2331 48.4845 11.1631 40.413L6.16806 35.418L6.16506 35.415L5.10756 34.359L5.16006 34.3065C0.622555 28.791 0.420055 20.8155 3.91506 14.0655C4.83456 12.285 6.46056 10.836 8.41506 10.257C9.10206 10.0455 10.0606 9.522 11.0191 8.697L11.0296 8.6895C11.9941 7.872 12.6706 7.008 13.0081 6.321V6.318C13.465 5.41184 14.0976 4.60566 14.8692 3.9464C15.6407 3.28714 16.5357 2.78798 17.5021 2.478ZM12.7651 37.7745L13.2826 38.2935C20.1826 45.192 31.3666 45.192 38.2666 38.2935C45.1666 31.3785 45.1651 20.193 38.2666 13.2945L37.7671 12.792C39.2191 17.1315 38.7091 22.221 36.3421 26.814C35.7872 27.8988 35.475 29.0914 35.4271 30.309C35.3821 31.419 34.7071 32.799 33.5371 33.954C32.3221 35.169 30.8821 35.844 29.7421 35.844C28.4638 35.8525 27.2043 36.1526 26.0596 36.7215L25.8871 36.804C24.8221 37.284 23.8621 38.019 23.0071 38.859C22.4971 39.369 21.7321 39.759 20.8771 39.909C19.9921 40.059 19.1971 39.909 18.6871 39.564C17.8621 38.994 16.9021 38.604 15.8521 38.469C14.802 38.3438 13.7676 38.111 12.7651 37.7745ZM33.9121 28.254C33.9121 27.474 34.0921 26.679 34.4671 25.929C37.4521 20.034 36.9421 13.209 32.6521 8.919C28.8871 5.154 23.1721 4.299 17.8321 6.174C17.0371 6.474 16.3771 7.164 16.1521 7.974C15.8671 8.994 14.9071 10.344 13.5271 11.529C12.1171 12.729 10.6471 13.449 9.61206 13.524C8.78706 13.584 7.97706 14.094 7.54206 14.874C4.09205 20.949 4.45206 28.179 8.93706 32.664C11.1271 34.854 13.9921 36.069 17.0371 36.324C17.8171 36.384 18.4921 36.714 19.0771 37.149C19.6021 37.554 20.4871 37.689 21.4621 37.479C22.4071 37.269 23.2171 36.759 23.6821 36.159C24.1771 35.529 24.8071 35.019 25.5271 34.689L25.8871 34.509C26.6371 34.134 27.4321 33.924 28.2121 33.939C29.3521 33.954 30.8071 33.264 32.0221 32.049C33.2221 30.834 33.8971 29.394 33.9121 28.254Z" fill="#191919"/>
</svg>
