<svg width="48" height="48" viewBox="0 0 48 48" fill="none" xmlns="http://www.w3.org/2000/svg">
<path d="M34 6C38.574 6 46.192 6 43.4 15.94M43.4 15.94C40.734 16.274 37.048 17 36.032 12M43.4 15.94L43.584 17.4C43.7572 18.8027 43.5529 20.2262 42.9921 21.5236C42.4314 22.821 41.5344 23.9451 40.394 24.78L36.032 28M14 6C9.426 6 1.808 6 4.6 15.94M4.6 15.94C7.266 16.274 10.952 17 11.968 12M4.6 15.94L4.416 17.4C4.24275 18.8027 4.44707 20.2262 5.00785 21.5236C5.56864 22.821 6.46556 23.9451 7.606 24.78L11.968 28M16 38C13.09 38 10.18 38 8 42M32 38C34.908 38 37.82 38 40 42M12 33C10 33 6 32 4 29M36 33C38 33 42 32 44 29M28 20L29 17M20 20L19 17M36 30.38C36 34.942 30.72 38.932 27.164 41.1C25.2 42.3 22.8 42.3 20.836 41.1C17.28 38.934 12 34.944 12 30.38C12 23.5 17.372 20 24 20C30.628 20 36 23.5 36 30.38Z" stroke="#191919" stroke-width="3" stroke-linecap="round" stroke-linejoin="round"/>
</svg>
