<svg width="48" height="48" viewBox="0 0 48 48" fill="none" xmlns="http://www.w3.org/2000/svg">
<path fill-rule="evenodd" clip-rule="evenodd" d="M20.51 2.774L23.03 4.286C26.2262 6.17535 28.6817 9.09928 29.99 12.574C30.434 11.574 30.962 10.604 31.452 9.624L33.414 11.586C37.818 15.99 42 22.59 42 29C42 37.596 36.7 43.046 28.22 43.988L25.44 44.296L26.048 41.566C26.522 39.43 26.608 38.034 26.508 37.056C26.388 35.826 25.804 34.86 25.076 33.9C24.38 32.98 23.69 32.058 23.138 31.04C20.868 32.834 19.988 34.454 19.706 35.788C19.346 37.496 19.856 39.242 20.788 41.106L22.432 44.394L18.78 43.988C13.628 43.416 8.55201 39.974 6.55201 34.952C4.46201 29.698 5.94001 23.34 12.692 17.488C17.172 13.606 19.544 8.572 20.51 2.774ZM23.174 9.374C21.65 13.654 18.724 17.554 15.31 20.512C9.48801 25.558 8.96601 30.2 10.27 33.472C11.24 35.912 13.334 37.918 15.816 39.056C15.526 37.7082 15.5179 36.3151 15.792 34.964C16.444 31.872 18.668 28.974 22.94 26.304L25.094 24.958L25.898 27.368C26.602 29.48 28.062 30.974 29.204 32.828C30.46 34.868 30.7 37.208 30.444 39.544C35.684 38.234 38 34.26 38 29C38 24.556 35.32 20.196 32.66 16.788C31.564 19.244 29.254 20.108 27 21.236V18C27 15.262 25.886 11.924 23.174 9.376V9.374Z" fill="#191919"/>
</svg>
