<svg width="24" height="27" viewBox="0 0 24 27" fill="none" xmlns="http://www.w3.org/2000/svg">
<path d="M10.6186 2.69503L12 1.88298L13.5949 0.945337C13.5949 0.945337 11.2077 -0.0566717 10.6186 0.945337C10.2723 1.53439 10.6186 2.69503 10.6186 2.69503Z" fill="#FF8000"/>
<path fill-rule="evenodd" clip-rule="evenodd" d="M12 4.48155C7.44784 4.48155 3.60267 7.56356 2.36732 11.79C2.09657 12.7163 1.95118 13.6976 1.95118 14.7134C1.95118 15.7293 2.09657 16.7106 2.36732 17.6368C3.60267 21.8633 7.44784 24.9453 12 24.9453C16.5521 24.9453 20.3973 21.8633 21.6326 17.6368C21.9034 16.7106 22.0488 15.7293 22.0488 14.7134C22.0488 13.6976 21.9034 12.7163 21.6326 11.79C20.3973 7.56356 16.5521 4.48155 12 4.48155ZM4.82219 11.79C4.82219 10.3283 5.93872 9.19147 7.37426 9.19147H17.104C18.5396 9.19147 19.0181 10.4908 19.0181 11.79V18.1241C19.0181 19.7482 18.2206 20.2354 16.466 20.2354H7.37426C5.93872 20.2354 4.82219 19.5858 4.82219 18.1241V11.79Z" fill="#FF8000"/>
<path d="M7.37426 9.19147C5.93872 9.19147 4.82219 10.3283 4.82219 11.79V18.1241C4.82219 19.5858 5.93872 20.2354 7.37426 20.2354H16.466C18.2206 20.2354 19.0181 19.7482 19.0181 18.1241V11.79C19.0181 10.4908 18.5396 9.19147 17.104 9.19147H7.37426Z" fill="#191919"/>
<path d="M1.95118 14.7134C1.95118 13.6976 2.09657 12.7163 2.36732 11.79C-0.122431 11.79 -0.122448 17.6368 2.36732 17.6368C2.09657 16.7106 1.95118 15.7293 1.95118 14.7134Z" fill="#FF8000"/>
<path d="M21.6326 11.79C21.9034 12.7163 22.0488 13.6976 22.0488 14.7134C22.0488 15.7293 21.9034 16.7106 21.6326 17.6368C24.1225 17.6368 24.1225 11.79 21.6326 11.79Z" fill="#FF8000"/>
<path d="M12 4.48155C7.44784 4.48155 3.60267 7.56356 2.36732 11.79M12 4.48155C16.5521 4.48155 20.3973 7.56356 21.6326 11.79M12 4.48155V1.88298M2.36732 11.79C2.09657 12.7163 1.95118 13.6976 1.95118 14.7134C1.95118 15.7293 2.09657 16.7106 2.36732 17.6368M2.36732 11.79C-0.122431 11.79 -0.122448 17.6368 2.36732 17.6368M2.36732 17.6368C3.60267 21.8633 7.44784 24.9453 12 24.9453C16.5521 24.9453 20.3973 21.8633 21.6326 17.6368M21.6326 11.79C21.9034 12.7163 22.0488 13.6976 22.0488 14.7134C22.0488 15.7293 21.9034 16.7106 21.6326 17.6368M21.6326 11.79C24.1225 11.79 24.1225 17.6368 21.6326 17.6368M12 1.88298L10.6186 2.69503C10.6186 2.69503 10.2723 1.53439 10.6186 0.945337C11.2077 -0.0566717 13.5949 0.945337 13.5949 0.945337L12 1.88298ZM7.37426 9.19147C5.93872 9.19147 4.82219 10.3283 4.82219 11.79V18.1241C4.82219 19.5858 5.93872 20.2354 7.37426 20.2354H16.466C18.2206 20.2354 19.0181 19.7482 19.0181 18.1241V11.79C19.0181 10.4908 18.5396 9.19147 17.104 9.19147H7.37426Z" stroke="#191919"/>
</svg>
