<svg width="50" height="52" viewBox="0 0 50 52" fill="none" xmlns="http://www.w3.org/2000/svg">
<path d="M15.5474 18.4073C12.6139 18.4073 10.3323 20.681 10.3323 23.6044V36.2725C10.3323 39.1959 12.6139 40.4952 15.5474 40.4952H34.1262C37.7116 40.4952 39.3413 39.5207 39.3413 36.2725V23.6044C39.3413 21.0058 38.3635 18.4073 35.43 18.4073H15.5474Z" fill="#FF8000"/>
<path d="M4.46546 29.4512C4.46546 27.4195 4.76256 25.457 5.31582 23.6044C0.228076 23.6044 0.228041 35.298 5.31582 35.298C4.76256 33.4454 4.46546 31.4829 4.46546 29.4512Z" fill="#191919"/>
<path fill-rule="evenodd" clip-rule="evenodd" d="M24.9999 8.98743C15.6978 8.98743 7.84024 15.1514 5.31582 23.6044C4.76256 25.457 4.46546 27.4195 4.46546 29.4512C4.46546 31.4829 4.76256 33.4454 5.31582 35.298C7.84024 43.751 15.6978 49.915 24.9999 49.915C34.3021 49.915 42.1596 43.751 44.6841 35.298C45.2373 33.4454 45.5344 31.4829 45.5344 29.4512C45.5344 27.4195 45.2373 25.457 44.6841 23.6044C42.1596 15.1514 34.3021 8.98743 24.9999 8.98743ZM10.3323 23.6044C10.3323 20.681 12.6139 18.4073 15.5474 18.4073H35.43C38.3635 18.4073 39.3413 21.0058 39.3413 23.6044V36.2725C39.3413 39.5207 37.7116 40.4952 34.1262 40.4952H15.5474C12.6139 40.4952 10.3323 39.1959 10.3323 36.2725V23.6044Z" fill="#191919"/>
<path d="M22.1772 5.41438L24.9999 3.79028L28.2592 1.915C28.2592 1.915 23.3617 -0.143747 22.1772 1.915C21.4957 3.09952 22.1772 5.41438 22.1772 5.41438Z" fill="#191919"/>
<path d="M44.6841 23.6044C45.2373 25.457 45.5344 27.4195 45.5344 29.4512C45.5344 31.4829 45.2373 33.4454 44.6841 35.298C49.772 35.298 49.772 23.6044 44.6841 23.6044Z" fill="#191919"/>
<path d="M24.9999 8.98743C15.6978 8.98743 7.84024 15.1514 5.31582 23.6044M24.9999 8.98743C34.3021 8.98743 42.1596 15.1514 44.6841 23.6044M24.9999 8.98743V3.79028M5.31582 23.6044C4.76256 25.457 4.46546 27.4195 4.46546 29.4512C4.46546 31.4829 4.76256 33.4454 5.31582 35.298M5.31582 23.6044C0.228076 23.6044 0.228041 35.298 5.31582 35.298M5.31582 35.298C7.84024 43.751 15.6978 49.915 24.9999 49.915C34.3021 49.915 42.1596 43.751 44.6841 35.298M44.6841 23.6044C45.2373 25.457 45.5344 27.4195 45.5344 29.4512C45.5344 31.4829 45.2373 33.4454 44.6841 35.298M44.6841 23.6044C49.772 23.6044 49.772 35.298 44.6841 35.298M24.9999 3.79028L22.1772 5.41438C22.1772 5.41438 21.4957 3.09952 22.1772 1.915C23.3617 -0.143747 28.2592 1.915 28.2592 1.915L24.9999 3.79028ZM15.5474 18.4073C12.6139 18.4073 10.3323 20.681 10.3323 23.6044V36.2725C10.3323 39.1959 12.6139 40.4952 15.5474 40.4952H34.1262C37.7116 40.4952 39.3413 39.5207 39.3413 36.2725V23.6044C39.3413 21.0058 38.3635 18.4073 35.43 18.4073H15.5474Z" stroke="#FF8000" stroke-width="2"/>
</svg>
