<svg width="283" height="70" viewBox="0 0 283 70" fill="none" xmlns="http://www.w3.org/2000/svg">
<path d="M33.4581 37.36C31.4048 37.36 29.6315 36.9467 28.1381 36.12C26.6448 35.2933 25.4848 34.12 24.6581 32.6C23.8581 31.08 23.4581 29.2933 23.4581 27.24H26.4581C26.4581 28.6267 26.7515 29.8667 27.3381 30.96C27.9515 32.0533 28.7781 32.92 29.8181 33.56C30.8581 34.1733 32.0581 34.5067 33.4181 34.56C34.7781 34.5867 35.9915 34.36 37.0581 33.88C38.1248 33.4 38.9515 32.7333 39.5381 31.88C40.1248 31 40.3781 30.0133 40.2981 28.92C40.2181 26.7333 38.4581 25.0267 35.0181 23.8L30.7781 22.28C28.6181 21.5067 27.0181 20.6267 25.9781 19.64C24.9648 18.6267 24.4048 17.4267 24.2981 16.04C24.1915 14.4667 24.5115 13.0667 25.2581 11.84C26.0315 10.5867 27.1248 9.61333 28.5381 8.92C29.9515 8.2 31.5515 7.86667 33.3381 7.92C36.1115 8 38.3515 8.82667 40.0581 10.4C41.7915 11.9467 42.7248 14.0133 42.8581 16.6H39.8581C39.7515 14.92 39.0848 13.5333 37.8581 12.44C36.6315 11.32 35.1115 10.7467 33.2981 10.72C32.0981 10.6667 31.0315 10.8533 30.0981 11.28C29.1915 11.7067 28.4848 12.32 27.9781 13.12C27.4715 13.8933 27.2448 14.7733 27.2981 15.76C27.3515 16.5067 27.7515 17.1733 28.4981 17.76C29.2448 18.32 30.4048 18.9067 31.9781 19.52L36.3381 21.16C40.7648 22.84 43.0581 25.28 43.2181 28.48C43.2981 30.1333 42.9115 31.64 42.0581 33C41.2048 34.3333 40.0315 35.4 38.5381 36.2C37.0448 36.9733 35.3515 37.36 33.4581 37.36ZM59.0425 37H55.8025V11.4H46.6025V8.6H68.4825V11.4H59.0425V37ZM89.7869 37L87.3469 29.44H75.7469L73.3069 37H70.3069L79.6269 8.6H83.4669L92.7869 37H89.7869ZM81.5469 11.36L76.6269 26.64H86.4669L81.5469 11.36ZM116.011 37H112.171L105.051 24.12H99.6113V37H96.6113V8.6H107.331C109.865 8.6 111.811 9.28 113.171 10.64C114.558 11.9733 115.251 13.9067 115.251 16.44C115.251 18.6267 114.691 20.3733 113.571 21.68C112.478 22.9867 110.905 23.7733 108.851 24.04L116.011 37ZM99.6113 11.4V21.32H107.331C108.958 21.32 110.198 20.9067 111.051 20.08C111.905 19.2267 112.305 18.0133 112.251 16.44C112.251 14.8133 111.825 13.5733 110.971 12.72C110.118 11.84 108.905 11.4 107.331 11.4H99.6113ZM129.396 37.36C127.342 37.36 125.569 36.9467 124.076 36.12C122.582 35.2933 121.422 34.12 120.596 32.6C119.796 31.08 119.396 29.2933 119.396 27.24H122.396C122.396 28.6267 122.689 29.8667 123.276 30.96C123.889 32.0533 124.716 32.92 125.756 33.56C126.796 34.1733 127.996 34.5067 129.356 34.56C130.716 34.5867 131.929 34.36 132.996 33.88C134.062 33.4 134.889 32.7333 135.476 31.88C136.062 31 136.316 30.0133 136.236 28.92C136.156 26.7333 134.396 25.0267 130.956 23.8L126.716 22.28C124.556 21.5067 122.956 20.6267 121.916 19.64C120.902 18.6267 120.342 17.4267 120.236 16.04C120.129 14.4667 120.449 13.0667 121.196 11.84C121.969 10.5867 123.062 9.61333 124.476 8.92C125.889 8.2 127.489 7.86667 129.276 7.92C132.049 8 134.289 8.82667 135.996 10.4C137.729 11.9467 138.662 14.0133 138.796 16.6H135.796C135.689 14.92 135.022 13.5333 133.796 12.44C132.569 11.32 131.049 10.7467 129.236 10.72C128.036 10.6667 126.969 10.8533 126.036 11.28C125.129 11.7067 124.422 12.32 123.916 13.12C123.409 13.8933 123.182 14.7733 123.236 15.76C123.289 16.5067 123.689 17.1733 124.436 17.76C125.182 18.32 126.342 18.9067 127.916 19.52L132.276 21.16C136.702 22.84 138.996 25.28 139.156 28.48C139.236 30.1333 138.849 31.64 137.996 33C137.142 34.3333 135.969 35.4 134.476 36.2C132.982 36.9733 131.289 37.36 129.396 37.36ZM154.98 37H151.74V11.4H142.54V8.6H164.42V11.4H154.98V37ZM187.964 37H184.124L177.004 24.12H171.564V37H168.564V8.6H179.284C181.818 8.6 183.764 9.28 185.124 10.64C186.511 11.9733 187.204 13.9067 187.204 16.44C187.204 18.6267 186.644 20.3733 185.524 21.68C184.431 22.9867 182.858 23.7733 180.804 24.04L187.964 37ZM171.564 11.4V21.32H179.284C180.911 21.32 182.151 20.9067 183.004 20.08C183.858 19.2267 184.258 18.0133 184.204 16.44C184.204 14.8133 183.778 13.5733 182.924 12.72C182.071 11.84 180.858 11.4 179.284 11.4H171.564ZM191.389 30.12L191.429 17V8.6H194.429L194.389 29.68C194.389 31.0667 194.869 32.16 195.829 32.96C196.789 33.76 198.082 34.16 199.709 34.16L206.469 34.2L206.509 8.6H209.509L209.469 37H199.149C197.629 37 196.282 36.7067 195.109 36.12C193.962 35.5333 193.055 34.72 192.389 33.68C191.722 32.64 191.389 31.4533 191.389 30.12ZM225.853 34.88C229.346 34.88 231.426 32.4933 232.093 27.72H235.093C234.266 34.3867 231.186 37.7067 225.853 37.68C222.52 37.6533 219.946 36.3467 218.133 33.76C216.32 31.1733 215.413 27.5067 215.413 22.76C215.413 17.9867 216.306 14.3067 218.093 11.72C219.88 9.13333 222.426 7.84 225.733 7.84C231.173 7.84 234.333 11.1733 235.213 17.84H232.213C231.626 13.04 229.426 10.64 225.613 10.64C223.373 10.64 221.64 11.6933 220.413 13.8C219.213 15.88 218.613 18.8667 218.613 22.76C218.613 26.6267 219.24 29.6133 220.493 31.72C221.746 33.8267 223.533 34.88 225.853 34.88ZM243.317 36.96H240.318V8.64H243.317V22.16L254.838 8.6H258.438L249.478 19.36L260.758 37H257.118L247.518 21.72L243.317 26.8V36.96Z" fill="white"/>
<g clip-path="url(#clip0_343_6026)">
<path d="M25.5625 48.9062C22.5912 49.6217 20.0459 51.9713 18.5137 53.2088C18.0716 52.7992 17.6058 52.4161 17.1186 52.0615C14.9881 50.5053 12.4375 50.3125 12.4375 50.3125C12.4375 50.3125 13.1037 53.3318 14.8609 54.99C13.1037 56.6488 12.4375 59.6682 12.4375 59.6682C12.4375 59.6682 14.9881 59.4754 17.1186 57.9191C17.6017 57.5676 18.0636 57.1878 18.502 56.7818C20.0313 58.0205 22.5883 60.376 25.5625 61.0938L24.625 64.375C26.9354 63.9842 29.2457 62.2943 30.175 61.5479C37.75 61.2109 40.5625 56.3477 40.5625 55C40.5625 53.7109 37.75 48.7891 30.1979 48.4533C29.2844 47.7215 26.9547 46.0187 24.625 45.625L25.5625 48.9062Z" stroke="#FFEA00" stroke-width="2" stroke-linejoin="round"/>
<path d="M35.875 54.9994C36.3928 54.9994 36.8125 54.5797 36.8125 54.0619C36.8125 53.5441 36.3928 53.1244 35.875 53.1244C35.3572 53.1244 34.9375 53.5441 34.9375 54.0619C34.9375 54.5797 35.3572 54.9994 35.875 54.9994Z" fill="#FFEA00"/>
<path d="M33.6701 60.8594C32.6371 59.0794 32.093 57.058 32.093 55C32.093 52.942 32.6371 50.9206 33.6701 49.1406" stroke="#FFEA00" stroke-width="2" stroke-miterlimit="20" stroke-linecap="round"/>
</g>
<path d="M72.5 46.5625C72.5 46.8111 72.4012 47.0496 72.2254 47.2254C72.0496 47.4012 71.8111 47.5 71.5625 47.5C71.3139 47.5 71.0754 47.4012 70.8996 47.2254C70.7238 47.0496 70.625 46.8111 70.625 46.5625C70.625 46.3139 70.7238 46.0754 70.8996 45.8996C71.0754 45.7238 71.3139 45.625 71.5625 45.625C71.8111 45.625 72.0496 45.7238 72.2254 45.8996C72.4012 46.0754 72.5 46.3139 72.5 46.5625Z" fill="#0088FF"/>
<path fill-rule="evenodd" clip-rule="evenodd" d="M67.8125 41.875C66.9654 41.8748 66.1341 42.104 65.407 42.5385C64.6798 42.973 64.0839 43.5963 63.6827 44.3424C63.2815 45.0884 63.09 45.9292 63.1285 46.7754C63.1669 47.6216 63.434 48.4416 63.9012 49.1481L61.7994 51.25H58.4375V53.125H61.25V55.9375H63.125V52.5756L65.2269 50.4738C65.9694 50.965 66.8581 51.25 67.8125 51.25H70.625V55H68.75C67.7554 55 66.8016 55.3951 66.0983 56.0984C65.3951 56.8016 65 57.7554 65 58.75C64.0054 58.75 63.0516 59.1451 62.3483 59.8484C61.6451 60.5516 61.25 61.5054 61.25 62.5C61.25 63.4946 61.6451 64.4484 62.3483 65.1516C63.0516 65.8549 64.0054 66.25 65 66.25H81.875C82.8696 66.25 83.8234 65.8549 84.5266 65.1516C85.2299 64.4484 85.625 63.4946 85.625 62.5C85.625 61.5054 85.2299 60.5516 84.5266 59.8484C83.8234 59.1451 82.8696 58.75 81.875 58.75C81.875 57.7554 81.4799 56.8016 80.7766 56.0984C80.0734 55.3951 79.1196 55 78.125 55V48.4375C78.125 46.697 77.4336 45.0278 76.2029 43.7971C74.9722 42.5664 73.303 41.875 71.5625 41.875H67.8125ZM65 46.5625C65 45.8166 65.2963 45.1012 65.8238 44.5738C66.3512 44.0463 67.0666 43.75 67.8125 43.75H71.5625C72.8057 43.75 73.998 44.2439 74.8771 45.1229C75.7561 46.002 76.25 47.1943 76.25 48.4375V55.9375L77.1875 56.875H78.125C78.6223 56.875 79.0992 57.0725 79.4508 57.4242C79.8025 57.7758 80 58.2527 80 58.75V60.625H81.875C82.3723 60.625 82.8492 60.8225 83.2008 61.1742C83.5525 61.5258 83.75 62.0027 83.75 62.5C83.75 62.9973 83.5525 63.4742 83.2008 63.8258C82.8492 64.1775 82.3723 64.375 81.875 64.375H65C64.5027 64.375 64.0258 64.1775 63.6742 63.8258C63.3225 63.4742 63.125 62.9973 63.125 62.5C63.125 62.0027 63.3225 61.5258 63.6742 61.1742C64.0258 60.8225 64.5027 60.625 65 60.625H66.875V58.75C66.875 58.2527 67.0725 57.7758 67.4242 57.4242C67.7758 57.0725 68.2527 56.875 68.75 56.875H71.5625L72.5 55.9375V50.3125L71.5625 49.375H67.8125C67.0666 49.375 66.3512 49.0787 65.8238 48.5512C65.2963 48.0238 65 47.3084 65 46.5625Z" fill="#0088FF"/>
<path fill-rule="evenodd" clip-rule="evenodd" d="M116.319 41.7338L117.894 42.6788C119.891 43.8596 121.426 45.6871 122.244 47.8588C122.521 47.2338 122.851 46.6275 123.158 46.015L124.384 47.2413C127.136 49.9938 129.75 54.1188 129.75 58.125C129.75 63.4975 126.438 66.9038 121.138 67.4925L119.4 67.685L119.78 65.9788C120.076 64.6438 120.13 63.7713 120.068 63.16C119.993 62.3913 119.628 61.7875 119.173 61.1875C118.738 60.6125 118.306 60.0363 117.961 59.4C116.543 60.5213 115.993 61.5338 115.816 62.3675C115.591 63.435 115.91 64.5263 116.493 65.6913L117.52 67.7463L115.238 67.4925C112.018 67.135 108.845 64.9838 107.595 61.845C106.289 58.5613 107.213 54.5875 111.433 50.93C114.233 48.5038 115.715 45.3575 116.319 41.7338ZM117.984 45.8588C117.031 48.5338 115.203 50.9713 113.069 52.82C109.43 55.9738 109.104 58.875 109.919 60.92C110.525 62.445 111.834 63.6988 113.385 64.41C113.204 63.5677 113.199 62.6969 113.37 61.8525C113.778 59.92 115.168 58.1088 117.838 56.44L119.184 55.5988L119.686 57.105C120.126 58.425 121.039 59.3588 121.753 60.5175C122.538 61.7925 122.688 63.255 122.528 64.715C125.803 63.8963 127.25 61.4125 127.25 58.125C127.25 55.3475 125.575 52.6225 123.913 50.4925C123.228 52.0275 121.784 52.5675 120.375 53.2725V51.25C120.375 49.5388 119.679 47.4525 117.984 45.86V45.8588Z" fill="#00FF40"/>
<path d="M170.75 43.75C173.609 43.75 178.37 43.75 176.625 49.9625M176.625 49.9625C174.959 50.1712 172.655 50.625 172.02 47.5M176.625 49.9625L176.74 50.875C176.848 51.7517 176.721 52.6414 176.37 53.4523C176.02 54.2631 175.459 54.9657 174.746 55.4875L172.02 57.5M158.25 43.75C155.391 43.75 150.63 43.75 152.375 49.9625M152.375 49.9625C154.041 50.1712 156.345 50.625 156.98 47.5M152.375 49.9625L152.26 50.875C152.152 51.7517 152.279 52.6414 152.63 53.4523C152.98 54.2631 153.541 54.9657 154.254 55.4875L156.98 57.5M159.5 63.75C157.681 63.75 155.863 63.75 154.5 66.25M169.5 63.75C171.317 63.75 173.137 63.75 174.5 66.25M157 60.625C155.75 60.625 153.25 60 152 58.125M172 60.625C173.25 60.625 175.75 60 177 58.125M167 52.5L167.625 50.625M162 52.5L161.375 50.625M172 58.9875C172 61.8387 168.7 64.3325 166.477 65.6875C165.25 66.4375 163.75 66.4375 162.523 65.6875C160.3 64.3337 157 61.84 157 58.9875C157 54.6875 160.358 52.5 164.5 52.5C168.642 52.5 172 54.6875 172 58.9875Z" stroke="#FF3C00" stroke-width="2" stroke-linecap="round" stroke-linejoin="round"/>
<path d="M212.375 61.25H208.625V67.5H212.375V61.25ZM214.875 61.25H206.125L204.25 56.25H216.75L214.875 61.25Z" stroke="#D900FF" stroke-width="2" stroke-miterlimit="2" stroke-linecap="round" stroke-linejoin="round"/>
<path d="M208.625 48.75C209.875 45.8687 212.375 42.5 212.375 42.5C212.375 42.5 216.35 49.6812 216.35 52.0187C216.35 54.3562 214.712 56.25 212.375 56.25H207.375C205.725 56.25 204.65 54.9125 204.65 53.2625C204.65 51.6125 207.375 46.25 207.375 46.25C207.375 46.25 207.975 47.5062 208.625 48.75Z" stroke="#D900FF" stroke-width="2" stroke-miterlimit="2" stroke-linecap="round" stroke-linejoin="round"/>
<path d="M269.786 67.1289C269.67 67.2731 269.527 67.3932 269.366 67.4823C269.204 67.5714 269.026 67.6277 268.842 67.648C268.659 67.6684 268.473 67.6524 268.296 67.6009C268.118 67.5494 267.953 67.4635 267.809 67.3481C267.769 67.3164 263.372 63.9063 256.5 63.9063C249.628 63.9063 245.23 67.3164 245.187 67.3504C244.895 67.5835 244.523 67.6912 244.152 67.6499C243.781 67.6086 243.442 67.4216 243.209 67.1301C242.976 66.8386 242.868 66.4664 242.909 66.0954C242.95 65.7244 243.137 65.3851 243.429 65.152C243.619 64.9996 247.832 61.6914 254.661 61.1676C254.381 59.8367 254.29 58.4728 254.391 57.1164C254.586 54.6801 255.548 51.502 258.727 48.9391C258.466 48.9136 258.205 48.9046 257.944 48.9121C255.928 48.9777 254.708 50.1274 254.107 52.5309C254.031 52.8335 253.856 53.1022 253.61 53.2946C253.365 53.487 253.062 53.5923 252.75 53.5938C252.635 53.594 252.52 53.5799 252.408 53.5516C252.046 53.4611 251.735 53.2306 251.543 52.9109C251.351 52.5911 251.294 52.2083 251.385 51.8465C251.907 49.7617 253.443 46.2426 257.861 46.1043C258.441 46.0889 259.022 46.1281 259.595 46.2215C259.188 45.6484 258.68 45.1422 258.062 44.8867C257.092 44.4848 255.867 44.7309 254.422 45.6168C254.265 45.7134 254.089 45.7779 253.907 45.8068C253.724 45.8356 253.537 45.8282 253.358 45.785C253.178 45.7417 253.008 45.6635 252.859 45.5547C252.709 45.4459 252.582 45.3087 252.486 45.151C252.389 44.9932 252.325 44.818 252.296 44.6353C252.267 44.4527 252.274 44.2661 252.318 44.0863C252.361 43.9064 252.439 43.7369 252.548 43.5873C252.657 43.4377 252.794 43.311 252.952 43.2145C255.213 41.827 257.3 41.5152 259.154 42.2899C260.38 42.802 261.455 43.8039 262.289 45.2055C262.976 44.3629 263.78 43.7781 264.656 43.4934C266.58 42.8664 268.371 43.7828 269.535 44.6652C269.687 44.7749 269.815 44.9137 269.912 45.0736C270.01 45.2336 270.074 45.4113 270.102 45.5965C270.13 45.7817 270.121 45.9706 270.074 46.1521C270.028 46.3336 269.946 46.5041 269.833 46.6535C269.72 46.8029 269.579 46.9282 269.417 47.0221C269.255 47.116 269.076 47.1766 268.89 47.2003C268.704 47.2241 268.515 47.2104 268.335 47.1603C268.155 47.1101 267.986 47.0244 267.839 46.9082C266.926 46.218 266.149 45.9707 265.533 46.1676C264.997 46.3399 264.543 46.832 264.193 47.3617C264.862 47.5487 265.505 47.8159 266.109 48.1574C267.923 49.1969 270.094 51.3918 270.094 55.9375C270.094 56.3105 269.946 56.6682 269.682 56.9319C269.418 57.1956 269.06 57.3438 268.688 57.3438C268.315 57.3438 267.957 57.1956 267.693 56.9319C267.429 56.6682 267.281 56.3105 267.281 55.9375C267.281 53.5938 266.563 51.9027 265.147 50.8809C265.408 51.8455 265.466 52.8536 265.318 53.8417C265.17 54.8299 264.82 55.7769 264.288 56.6231C264.195 56.789 264.069 56.9343 263.917 57.0499C263.766 57.1656 263.593 57.2494 263.408 57.2961C263.223 57.3428 263.031 57.3515 262.843 57.3216C262.655 57.2918 262.475 57.224 262.313 57.1225C262.152 57.0209 262.013 56.8877 261.905 56.7308C261.797 56.574 261.722 56.3968 261.684 56.21C261.647 56.0233 261.648 55.8308 261.687 55.6444C261.726 55.4579 261.802 55.2814 261.912 55.1254C262.253 54.5612 262.472 53.9322 262.557 53.2785C262.696 52.2133 262.432 51.1914 261.777 50.2317C259.01 51.9051 257.474 54.2582 257.207 57.2395C257.102 58.5406 257.215 59.8501 257.543 61.1137C264.836 61.4313 269.368 64.9891 269.566 65.1473C269.711 65.2627 269.832 65.4057 269.921 65.5679C270.011 65.7301 270.067 65.9084 270.088 66.0926C270.108 66.2767 270.092 66.463 270.04 66.6409C269.988 66.8188 269.902 66.9846 269.786 67.1289ZM243.844 56.875C243.844 56.1333 244.064 55.4083 244.476 54.7916C244.888 54.1749 245.473 53.6943 246.159 53.4105C246.844 53.1266 247.598 53.0524 248.325 53.1971C249.053 53.3418 249.721 53.6989 250.245 54.2234C250.77 54.7478 251.127 55.416 251.272 56.1434C251.416 56.8709 251.342 57.6249 251.058 58.3101C250.774 58.9953 250.294 59.581 249.677 59.993C249.06 60.4051 248.335 60.625 247.594 60.625C246.599 60.625 245.645 60.2299 244.942 59.5267C244.239 58.8234 243.844 57.8696 243.844 56.875ZM246.656 56.875C246.656 57.0604 246.711 57.2417 246.814 57.3959C246.917 57.55 247.064 57.6702 247.235 57.7411C247.406 57.8121 247.595 57.8307 247.777 57.7945C247.959 57.7583 248.126 57.669 248.257 57.5379C248.388 57.4068 248.477 57.2398 248.513 57.0579C248.549 56.8761 248.531 56.6876 248.46 56.5162C248.389 56.3449 248.269 56.1985 248.115 56.0955C247.96 55.9925 247.779 55.9375 247.594 55.9375C247.345 55.9375 247.107 56.0363 246.931 56.2121C246.755 56.3879 246.656 56.6264 246.656 56.875Z" fill="#FFB300"/>
<defs>
<clipPath id="clip0_343_6026">
<rect width="30" height="30" fill="white" transform="translate(11.5 40)"/>
</clipPath>
</defs>
</svg>
