<svg width="297" height="85" viewBox="0 0 297 85" fill="none" xmlns="http://www.w3.org/2000/svg">
<path d="M270.341 3.88651L269.22 7.86914L266.489 8.39128L269.57 9.68641L269.359 13.495L271.741 11.1556L274.822 12.4507L273.212 8.99021L275.593 6.6508L272.862 7.17294L270.341 3.88651Z" fill="#868686"/>
<path d="M269.57 9.68641C170.559 21.9435 115.94 25.7602 19.869 47.6538L21.2691 64.9228C115 40.0001 169 23.0001 269.57 9.68641Z" fill="url(#paint0_linear_396_14402)"/>
<path d="M31.4581 47.36C29.4048 47.36 27.6315 46.9467 26.1381 46.12C24.6448 45.2933 23.4848 44.12 22.6581 42.6C21.8581 41.08 21.4581 39.2933 21.4581 37.24H24.4581C24.4581 38.6267 24.7515 39.8667 25.3381 40.96C25.9515 42.0533 26.7781 42.92 27.8181 43.56C28.8581 44.1733 30.0581 44.5067 31.4181 44.56C32.7781 44.5867 33.9915 44.36 35.0581 43.88C36.1248 43.4 36.9515 42.7333 37.5381 41.88C38.1248 41 38.3781 40.0133 38.2981 38.92C38.2181 36.7333 36.4581 35.0267 33.0181 33.8L28.7781 32.28C26.6181 31.5067 25.0181 30.6267 23.9781 29.64C22.9648 28.6267 22.4048 27.4267 22.2981 26.04C22.1915 24.4667 22.5115 23.0667 23.2581 21.84C24.0315 20.5867 25.1248 19.6133 26.5381 18.92C27.9515 18.2 29.5515 17.8667 31.3381 17.92C34.1115 18 36.3515 18.8267 38.0581 20.4C39.7915 21.9467 40.7248 24.0133 40.8581 26.6H37.8581C37.7515 24.92 37.0848 23.5333 35.8581 22.44C34.6315 21.32 33.1115 20.7467 31.2981 20.72C30.0981 20.6667 29.0315 20.8533 28.0981 21.28C27.1915 21.7067 26.4848 22.32 25.9781 23.12C25.4715 23.8933 25.2448 24.7733 25.2981 25.76C25.3515 26.5067 25.7515 27.1733 26.4981 27.76C27.2448 28.32 28.4048 28.9067 29.9781 29.52L34.3381 31.16C38.7648 32.84 41.0581 35.28 41.2181 38.48C41.2981 40.1333 40.9115 41.64 40.0581 43C39.2048 44.3333 38.0315 45.4 36.5381 46.2C35.0448 46.9733 33.3515 47.36 31.4581 47.36ZM59.0425 47H55.8025V21.4H46.6025V18.6H68.4825V21.4H59.0425V47ZM91.7869 47L89.3469 39.44H77.7469L75.3069 47H72.3069L81.6269 18.6H85.4669L94.7869 47H91.7869ZM83.5469 21.36L78.6269 36.64H88.4669L83.5469 21.36ZM120.011 47H116.171L109.051 34.12H103.611V47H100.611V18.6H111.331C113.865 18.6 115.811 19.28 117.171 20.64C118.558 21.9733 119.251 23.9067 119.251 26.44C119.251 28.6267 118.691 30.3733 117.571 31.68C116.478 32.9867 114.905 33.7733 112.851 34.04L120.011 47ZM103.611 21.4V31.32H111.331C112.958 31.32 114.198 30.9067 115.051 30.08C115.905 29.2267 116.305 28.0133 116.251 26.44C116.251 24.8133 115.825 23.5733 114.971 22.72C114.118 21.84 112.905 21.4 111.331 21.4H103.611ZM135.396 47.36C133.342 47.36 131.569 46.9467 130.076 46.12C128.582 45.2933 127.422 44.12 126.596 42.6C125.796 41.08 125.396 39.2933 125.396 37.24H128.396C128.396 38.6267 128.689 39.8667 129.276 40.96C129.889 42.0533 130.716 42.92 131.756 43.56C132.796 44.1733 133.996 44.5067 135.356 44.56C136.716 44.5867 137.929 44.36 138.996 43.88C140.062 43.4 140.889 42.7333 141.476 41.88C142.062 41 142.316 40.0133 142.236 38.92C142.156 36.7333 140.396 35.0267 136.956 33.8L132.716 32.28C130.556 31.5067 128.956 30.6267 127.916 29.64C126.902 28.6267 126.342 27.4267 126.236 26.04C126.129 24.4667 126.449 23.0667 127.196 21.84C127.969 20.5867 129.062 19.6133 130.476 18.92C131.889 18.2 133.489 17.8667 135.276 17.92C138.049 18 140.289 18.8267 141.996 20.4C143.729 21.9467 144.662 24.0133 144.796 26.6H141.796C141.689 24.92 141.022 23.5333 139.796 22.44C138.569 21.32 137.049 20.7467 135.236 20.72C134.036 20.6667 132.969 20.8533 132.036 21.28C131.129 21.7067 130.422 22.32 129.916 23.12C129.409 23.8933 129.182 24.7733 129.236 25.76C129.289 26.5067 129.689 27.1733 130.436 27.76C131.182 28.32 132.342 28.9067 133.916 29.52L138.276 31.16C142.702 32.84 144.996 35.28 145.156 38.48C145.236 40.1333 144.849 41.64 143.996 43C143.142 44.3333 141.969 45.4 140.476 46.2C138.982 46.9733 137.289 47.36 135.396 47.36ZM162.98 47H159.74V21.4H150.54V18.6H172.42V21.4H162.98V47ZM197.964 47H194.124L187.004 34.12H181.564V47H178.564V18.6H189.284C191.818 18.6 193.764 19.28 195.124 20.64C196.511 21.9733 197.204 23.9067 197.204 26.44C197.204 28.6267 196.644 30.3733 195.524 31.68C194.431 32.9867 192.858 33.7733 190.804 34.04L197.964 47ZM181.564 21.4V31.32H189.284C190.911 31.32 192.151 30.9067 193.004 30.08C193.858 29.2267 194.258 28.0133 194.204 26.44C194.204 24.8133 193.778 23.5733 192.924 22.72C192.071 21.84 190.858 21.4 189.284 21.4H181.564ZM203.389 40.12L203.429 27V18.6H206.429L206.389 39.68C206.389 41.0667 206.869 42.16 207.829 42.96C208.789 43.76 210.082 44.16 211.709 44.16L218.469 44.2L218.509 18.6H221.509L221.469 47H211.149C209.629 47 208.282 46.7067 207.109 46.12C205.962 45.5333 205.055 44.72 204.389 43.68C203.722 42.64 203.389 41.4533 203.389 40.12ZM239.853 44.88C243.346 44.88 245.426 42.4933 246.093 37.72H249.093C248.266 44.3867 245.186 47.7067 239.853 47.68C236.52 47.6533 233.946 46.3467 232.133 43.76C230.32 41.1733 229.413 37.5067 229.413 32.76C229.413 27.9867 230.306 24.3067 232.093 21.72C233.88 19.1333 236.426 17.84 239.733 17.84C245.173 17.84 248.333 21.1733 249.213 27.84H246.213C245.626 23.04 243.426 20.64 239.613 20.64C237.373 20.64 235.64 21.6933 234.413 23.8C233.213 25.88 232.613 28.8667 232.613 32.76C232.613 36.6267 233.24 39.6133 234.493 41.72C235.746 43.8267 237.533 44.88 239.853 44.88ZM259.317 46.96H256.318V18.64H259.317V32.16L270.838 18.6H274.438L265.478 29.36L276.758 47H273.118L263.518 31.72L259.317 36.8V46.96Z" fill="white"/>
<path d="M5.06557 72.3257C3.64646 76.6836 9.1652 78.3956 10.5843 74.8159L5.06557 72.3257Z" fill="#8400FF"/>
<path d="M13.2648 74.9716C14.9993 78.2399 20.2027 76.5279 18.7836 72.4814L13.2648 74.9716Z" fill="#8400FF"/>
<path fill-rule="evenodd" clip-rule="evenodd" d="M13.8958 83.5316C13.2864 83.9115 12.8816 83.9793 12.1611 83.9985C11.3825 84.0193 10.9901 83.8227 10.2692 83.5316C6.80001 82.1309 2.85853 75.5941 2.22758 72.4814C1.59663 69.3686 2.2276 65.789 4.75043 63.1431C5.85394 61.898 7.27304 60.9642 9.3231 60.3417C10.394 60.0164 11.0573 60 12.1611 60C12.9495 60 13.6161 60.1095 14.3686 60.3417C16.2607 60.9253 17.7422 61.7424 19.0992 63.1431C21.7418 65.8709 22.5682 69.0573 21.622 72.4814C20.2027 77.6174 16.8914 81.6639 13.8958 83.5316ZM5.06557 72.3257C3.64646 76.6836 9.1652 78.3956 10.5843 74.8159L5.06557 72.3257ZM13.2648 74.9716C14.9993 78.2399 20.2027 76.5279 18.7836 72.4814L13.2648 74.9716Z" fill="#191919"/>
<path d="M5.06557 72.3257C3.64646 76.6836 9.1652 78.3956 10.5843 74.8159L5.06557 72.3257Z" stroke="#8400FF"/>
<path d="M13.2648 74.9716C14.9993 78.2399 20.2027 76.5279 18.7836 72.4814L13.2648 74.9716Z" stroke="#8400FF"/>
<path fill-rule="evenodd" clip-rule="evenodd" d="M13.8958 83.5316C13.2864 83.9115 12.8816 83.9793 12.1611 83.9985C11.3825 84.0193 10.9901 83.8227 10.2692 83.5316C6.80001 82.1309 2.85853 75.5941 2.22758 72.4814C1.59663 69.3686 2.2276 65.789 4.75043 63.1431C5.85394 61.898 7.27304 60.9642 9.3231 60.3417C10.394 60.0164 11.0573 60 12.1611 60C12.9495 60 13.6161 60.1095 14.3686 60.3417C16.2607 60.9253 17.7422 61.7424 19.0992 63.1431C21.7418 65.8709 22.5682 69.0573 21.622 72.4814C20.2027 77.6174 16.8914 81.6639 13.8958 83.5316ZM5.06557 72.3257C3.64646 76.6836 9.1652 78.3956 10.5843 74.8159L5.06557 72.3257ZM13.2648 74.9716C14.9993 78.2399 20.2027 76.5279 18.7836 72.4814L13.2648 74.9716Z" stroke="#8400FF"/>
<path d="M50.7971 71.8286L53.955 66.3429L56.9375 71.8286L63.4287 73.0286L59.0427 77.8286L59.9199 83.6571L53.955 81.4286L47.9901 84L48.6919 77.8286L44.4813 73.0286L50.7971 71.8286Z" fill="#FFF200"/>
<path d="M40.0077 64.8L38.7796 61.5429L42.1129 62.0571L44.9199 60L45.4463 63.4286L48.4287 65.1429L45.4463 66.8571L44.5691 69.9429L41.9375 67.5429L38.4287 67.8857L40.0077 64.8Z" fill="#FFF200"/>
<path d="M40.6217 79.2V76.9714L42.727 78L45.1831 77.3143L44.4813 79.7143L45.8849 81.2571L43.6042 81.7714L42.2006 83.4857L41.148 81.4286L38.8673 80.7429L40.6217 79.2Z" fill="#FFF200"/>
<path d="M50.7971 71.8286L53.955 66.3429L56.9375 71.8286L63.4287 73.0286L59.0427 77.8286L59.9199 83.6571L53.955 81.4286L47.9901 84L48.6919 77.8286L44.4813 73.0286L50.7971 71.8286Z" stroke="#FFF200"/>
<path d="M40.0077 64.8L38.7796 61.5429L42.1129 62.0571L44.9199 60L45.4463 63.4286L48.4287 65.1429L45.4463 66.8571L44.5691 69.9429L41.9375 67.5429L38.4287 67.8857L40.0077 64.8Z" stroke="#FFF200"/>
<path d="M40.6217 79.2V76.9714L42.727 78L45.1831 77.3143L44.4813 79.7143L45.8849 81.2571L43.6042 81.7714L42.2006 83.4857L41.148 81.4286L38.8673 80.7429L40.6217 79.2Z" stroke="#FFF200"/>
<path d="M96.7042 82.9842C98.0551 82.3883 99.2743 81.5506 100.308 80.5259C97.9756 78.3154 95.4328 80.6838 96.7042 82.9842Z" fill="#868686"/>
<path d="M93.6846 74.0523C93.1141 74.0959 92.6872 74.5908 92.7311 75.1576C92.7714 75.6792 93.1595 76.0648 93.6846 76.1049C94.2551 76.1485 94.7532 75.7244 94.7971 75.1576C94.8442 74.549 94.2972 74.0055 93.6846 74.0523Z" fill="#868686"/>
<path fill-rule="evenodd" clip-rule="evenodd" d="M91.7775 60.0003C85.1063 60.0441 79.7702 65.5306 79.858 72.1579C79.9446 78.6974 85.1947 83.9564 91.7775 83.9997C93.5332 84.0113 95.2004 83.6476 96.7042 82.9842C95.4328 80.6838 97.9756 78.3154 100.308 80.5259C102.465 78.3858 103.813 75.4301 103.856 72.1579C103.944 65.4875 98.4921 59.9561 91.7775 60.0003ZM92.7311 75.1576C92.6872 74.5908 93.1141 74.0959 93.6846 74.0523C94.2972 74.0055 94.8442 74.549 94.7971 75.1576C94.7532 75.7244 94.2551 76.1485 93.6846 76.1049C93.1595 76.0648 92.7714 75.6792 92.7311 75.1576Z" fill="#191919"/>
<path d="M82.8776 74.6839C84.9437 78.4733 87.8043 72.6313 83.5133 73.4208M90.0293 65.3683C88.9168 61.1052 83.0365 65.6841 88.2811 67.4209M98.9292 66.4735C91.3007 66.3157 97.181 76.2628 100.995 69.7893M96.7042 82.9842C95.2004 83.6476 93.5332 84.0113 91.7775 83.9997C85.1947 83.9564 79.9446 78.6974 79.858 72.1579C79.7702 65.5306 85.1063 60.0441 91.7775 60.0003C98.4921 59.9561 103.944 65.4875 103.856 72.1579C103.813 75.4301 102.465 78.3858 100.308 80.5259M96.7042 82.9842C98.0551 82.3883 99.2743 81.5506 100.308 80.5259M96.7042 82.9842C95.4328 80.6838 97.9756 78.3154 100.308 80.5259M90.3472 81.9469C92.89 80.9995 90.1882 78.6312 89.3936 80.9995M93.6846 74.0523C93.1141 74.0959 92.6872 74.5908 92.7311 75.1576C92.7714 75.6792 93.1595 76.0648 93.6846 76.1049C94.2551 76.1485 94.7532 75.7244 94.7971 75.1576C94.8442 74.549 94.2972 74.0055 93.6846 74.0523Z" stroke="#868686"/>
<path d="M124.502 67.2C124.502 66.3992 124.653 65.8462 125.205 65.28C125.758 64.7138 126.298 64.56 127.079 64.56C127.861 64.56 128.401 64.7138 128.954 65.28C129.506 65.8462 129.656 66.3992 129.656 67.2C129.656 68.0008 129.506 68.5538 128.954 69.12C128.401 69.6862 127.861 69.84 127.079 69.84C126.298 69.84 125.758 69.6862 125.205 69.12C124.653 68.5538 124.502 68.0008 124.502 67.2Z" fill="#00FF40"/>
<path d="M121.446 81.12C122.226 80.335 122.979 78.72 122.979 78.72C122.418 76.8987 121.727 74.2499 121.446 71.52C121.446 71.52 118.835 83.7473 121.446 81.12Z" fill="#191919"/>
<path fill-rule="evenodd" clip-rule="evenodd" d="M124.268 61.44C123.872 61.781 123.678 62.0068 123.331 62.4C121.38 64.61 121.096 68.1276 121.446 71.52C121.727 74.2499 122.418 76.8987 122.979 78.72C123.432 80.1893 123.8 81.12 123.8 81.12H126.142L124.268 84H130.359L128.485 81.12H130.828C130.828 81.12 131.163 80.1893 131.568 78.72C132.069 76.8986 132.677 74.2496 132.885 71.52C133.143 68.1261 132.782 64.6075 130.828 62.4C130.48 62.0073 130.287 61.781 129.891 61.44C129.385 61.0053 129.08 60.7716 128.485 60.48C127.963 60.2242 127.658 60 127.079 60C126.501 60 126.196 60.2242 125.674 60.48C125.079 60.7716 124.773 61.0053 124.268 61.44ZM125.205 65.28C124.653 65.8462 124.502 66.3992 124.502 67.2C124.502 68.0008 124.653 68.5538 125.205 69.12C125.758 69.6862 126.298 69.84 127.079 69.84C127.861 69.84 128.401 69.6862 128.954 69.12C129.506 68.5538 129.656 68.0008 129.656 67.2C129.656 66.3992 129.506 65.8462 128.954 65.28C128.401 64.7138 127.861 64.56 127.079 64.56C126.298 64.56 125.758 64.7138 125.205 65.28Z" fill="#191919"/>
<path d="M132.885 71.52C132.677 74.2496 132.069 76.8986 131.568 78.72C131.568 78.72 132.363 80.3417 133.17 81.12C135.837 83.6906 132.885 71.52 132.885 71.52Z" fill="#191919"/>
<path d="M122.979 78.72C123.432 80.1893 123.8 81.12 123.8 81.12H126.142L124.268 84H130.359L128.485 81.12H130.828C130.828 81.12 131.163 80.1893 131.568 78.72M122.979 78.72C122.979 78.72 122.226 80.335 121.446 81.12C118.835 83.7473 121.446 71.52 121.446 71.52M122.979 78.72C122.418 76.8987 121.727 74.2499 121.446 71.52M121.446 71.52C121.096 68.1276 121.38 64.61 123.331 62.4C123.678 62.0068 123.872 61.781 124.268 61.44C124.773 61.0053 125.079 60.7716 125.674 60.48C126.196 60.2242 126.501 60 127.079 60C127.658 60 127.963 60.2242 128.485 60.48C129.08 60.7716 129.385 61.0053 129.891 61.44C130.287 61.781 130.48 62.0073 130.828 62.4C132.782 64.6075 133.143 68.1261 132.885 71.52M132.885 71.52C132.677 74.2496 132.069 76.8986 131.568 78.72M132.885 71.52C132.885 71.52 135.837 83.6906 133.17 81.12C132.363 80.3417 131.568 78.72 131.568 78.72M127.079 64.56C126.298 64.56 125.758 64.7138 125.205 65.28C124.653 65.8462 124.502 66.3992 124.502 67.2C124.502 68.0008 124.653 68.5538 125.205 69.12C125.758 69.6862 126.298 69.84 127.079 69.84C127.861 69.84 128.401 69.6862 128.954 69.12C129.506 68.5538 129.656 68.0008 129.656 67.2C129.656 66.3992 129.506 65.8462 128.954 65.28C128.401 64.7138 127.861 64.56 127.079 64.56Z" stroke="#00FF40"/>
<path d="M160.964 76V69.5H164.464V76H160.964Z" fill="#FF0000"/>
<path d="M162.806 78.687L161.34 80.1527C161.34 80.1527 160.096 81.1122 160.058 81.9847C160.017 82.9167 160.549 83.5061 161.34 84H164.272C165.008 83.4881 165.408 82.8805 165.371 81.9847C165.337 81.1511 164.786 80.8094 164.272 80.1527L162.806 78.687Z" fill="#FF0000"/>
<path d="M163.694 65.7909C165.745 65.4609 167.569 63.6074 167.569 60H158.043C158.043 63.1766 159.833 65.1484 161.861 65.6914C162.464 65.853 163.089 65.8881 163.694 65.7909Z" fill="#FF0000"/>
<path d="M153.829 67.6947V64.5802H151.997L150.714 65.8626V67.6947H153.829Z" fill="#191919"/>
<path d="M156.943 67.6947V65.8626L155.661 64.5802H153.829V67.6947H156.943Z" fill="#191919"/>
<path d="M150.714 71.1756H153.829V67.6947H150.714V71.1756Z" fill="#191919"/>
<path d="M156.943 71.1756V67.6947H153.829V71.1756H156.943Z" fill="#191919"/>
<path d="M150.714 74.6565H153.829V71.1756H150.714V74.6565Z" fill="#191919"/>
<path d="M156.943 74.6565V71.1756H153.829V74.6565H156.943Z" fill="#191919"/>
<path d="M150.714 76.4886L151.997 77.5878H153.829V74.6565H150.714V76.4886Z" fill="#191919"/>
<path d="M153.829 77.5878H155.661L156.943 76.4886V74.6565H153.829V77.5878Z" fill="#191919"/>
<path fill-rule="evenodd" clip-rule="evenodd" d="M162.806 67.3282H159.691L158.592 68.6107V73.7405V77.5878L159.691 78.687H162.806H165.92L167.02 77.5878V73.7405V68.6107L166.104 67.3282H162.806ZM160.964 69.5V76H164.464V69.5H160.964Z" fill="#191919"/>
<path d="M169.585 64.5802L168.485 65.8626V67.6947H171.6V64.5802H169.585Z" fill="#191919"/>
<path d="M174.714 65.8626L173.615 64.5802H171.6V67.6947H174.714V65.8626Z" fill="#191919"/>
<path d="M168.485 71.1756H171.6V67.6947H168.485V71.1756Z" fill="#191919"/>
<path d="M174.714 71.1756V67.6947H171.6V71.1756H174.714Z" fill="#191919"/>
<path d="M168.485 71.1756V74.6565H171.6V71.1756H168.485Z" fill="#191919"/>
<path d="M174.714 74.6565V71.1756H171.6V74.6565H174.714Z" fill="#191919"/>
<path d="M168.485 76.4886L169.585 77.5878H171.6V74.6565H168.485V76.4886Z" fill="#191919"/>
<path d="M173.615 77.5878L174.714 76.4886V74.6565H171.6V77.5878H173.615Z" fill="#191919"/>
<path d="M162.806 67.3282H159.691L158.592 68.6107V73.7405M162.806 67.3282H166.104L167.02 68.6107V73.7405M162.806 67.3282L163.694 65.7909M162.806 67.3282L161.861 65.6914M162.806 78.687H159.691L158.592 77.5878V73.7405M162.806 78.687H165.92L167.02 77.5878V73.7405M162.806 78.687L161.34 80.1527C161.34 80.1527 160.096 81.1122 160.058 81.9847C160.017 82.9167 160.549 83.5061 161.34 84H164.272C165.008 83.4881 165.408 82.8805 165.371 81.9847C165.337 81.1511 164.786 80.8094 164.272 80.1527L162.806 78.687ZM163.694 65.7909C165.745 65.4609 167.569 63.6074 167.569 60H158.043C158.043 63.1766 159.833 65.1484 161.861 65.6914M163.694 65.7909C163.089 65.8881 162.464 65.853 161.861 65.6914M174.714 71.1756V74.6565M174.714 71.1756V67.6947M174.714 71.1756H171.6M168.485 71.1756V74.6565M168.485 71.1756V67.6947M168.485 71.1756L167.02 73.7405M168.485 71.1756H171.6M168.485 74.6565V76.4886L169.585 77.5878H171.6M168.485 74.6565H171.6M174.714 74.6565V76.4886L173.615 77.5878H171.6M174.714 74.6565H171.6M171.6 64.5802H173.615L174.714 65.8626V67.6947M171.6 64.5802H169.585L168.485 65.8626V67.6947M171.6 64.5802V67.6947M171.6 77.5878V74.6565M168.485 67.6947H171.6M174.714 67.6947H171.6M156.943 71.1756V67.6947M156.943 71.1756V74.6565M156.943 71.1756L158.592 73.7405M156.943 71.1756H153.829M156.943 67.6947V65.8626L155.661 64.5802H153.829M156.943 67.6947H153.829M153.829 64.5802H151.997L150.714 65.8626V67.6947M153.829 64.5802V67.6947M153.829 77.5878H155.661L156.943 76.4886V74.6565M153.829 77.5878H151.997L150.714 76.4886V74.6565M153.829 77.5878V74.6565M156.943 74.6565H153.829M150.714 74.6565V71.1756M150.714 74.6565H153.829M150.714 71.1756V67.6947M150.714 71.1756H153.829M150.714 67.6947H153.829M153.829 67.6947V71.1756M153.829 71.1756V74.6565M171.6 67.6947V71.1756M171.6 71.1756V74.6565M160.964 76V69.5H164.464V76H160.964Z" stroke="#FF0000"/>
<path d="M198.017 68.5408C196.582 68.5408 195.465 69.6564 195.465 71.0908V77.3063C195.465 78.7407 196.582 79.3782 198.017 79.3782H207.109C208.864 79.3782 209.661 78.9001 209.661 77.3063V71.0908C209.661 69.8158 209.183 68.5408 207.747 68.5408H198.017Z" fill="#FF8000"/>
<path d="M192.594 73.9595C192.594 72.9627 192.74 71.9998 193.01 71.0908C190.521 71.0908 190.521 76.8282 193.01 76.8282C192.74 75.9193 192.594 74.9563 192.594 73.9595Z" fill="#191919"/>
<path fill-rule="evenodd" clip-rule="evenodd" d="M202.643 63.919C198.091 63.919 194.246 66.9434 193.01 71.0908C192.74 71.9998 192.594 72.9627 192.594 73.9595C192.594 74.9563 192.74 75.9193 193.01 76.8282C194.246 80.9756 198.091 84 202.643 84C207.195 84 211.04 80.9756 212.276 76.8282C212.546 75.9193 212.692 74.9563 212.692 73.9595C212.692 72.9627 212.546 71.9998 212.276 71.0908C211.04 66.9434 207.195 63.919 202.643 63.919ZM195.465 71.0908C195.465 69.6564 196.582 68.5408 198.017 68.5408H207.747C209.183 68.5408 209.661 69.8158 209.661 71.0908V77.3063C209.661 78.9001 208.864 79.3782 207.109 79.3782H198.017C196.582 79.3782 195.465 78.7407 195.465 77.3063V71.0908Z" fill="#191919"/>
<path d="M201.262 62.1659L202.643 61.369L204.238 60.4489C204.238 60.4489 201.841 59.4388 201.262 60.4489C200.928 61.0301 201.262 62.1659 201.262 62.1659Z" fill="#191919"/>
<path d="M212.276 71.0908C212.546 71.9998 212.692 72.9627 212.692 73.9595C212.692 74.9563 212.546 75.9193 212.276 76.8282C214.766 76.8282 214.766 71.0908 212.276 71.0908Z" fill="#191919"/>
<path d="M202.643 63.919C198.091 63.919 194.246 66.9434 193.01 71.0908M202.643 63.919C207.195 63.919 211.04 66.9434 212.276 71.0908M202.643 63.919V61.369M193.01 71.0908C192.74 71.9998 192.594 72.9627 192.594 73.9595C192.594 74.9563 192.74 75.9193 193.01 76.8282M193.01 71.0908C190.521 71.0908 190.521 76.8282 193.01 76.8282M193.01 76.8282C194.246 80.9756 198.091 84 202.643 84C207.195 84 211.04 80.9756 212.276 76.8282M212.276 71.0908C212.546 71.9998 212.692 72.9627 212.692 73.9595C212.692 74.9563 212.546 75.9193 212.276 76.8282M212.276 71.0908C214.766 71.0908 214.766 76.8282 212.276 76.8282M202.643 61.369L201.262 62.1659C201.262 62.1659 200.928 61.0301 201.262 60.4489C201.841 59.4388 204.238 60.4489 204.238 60.4489L202.643 61.369ZM198.017 68.5408C196.582 68.5408 195.465 69.6564 195.465 71.0908V77.3063C195.465 78.7407 196.582 79.3782 198.017 79.3782H207.109C208.864 79.3782 209.661 78.9001 209.661 77.3063V71.0908C209.661 69.8158 209.183 68.5408 207.747 68.5408H198.017Z" stroke="#FF8000"/>
<path d="M246.203 61.2727V67.8182C246.203 67.8182 246.02 69.0909 246.939 69.0909H250.985C251.537 69.0909 251.537 67.8182 251.537 67.8182V61.2727C251.537 61.2727 251.537 60 250.985 60H246.939C246.02 60 246.203 61.2727 246.203 61.2727Z" fill="#00CCFF"/>
<path d="M237.008 65.0909V64L233.146 62.9091V66.1818L237.008 65.0909Z" fill="#00CCFF"/>
<path d="M233.146 66.1818V62.9091C233.146 62.9091 233.146 61.4545 231.859 61.4545C230.571 61.4545 230.571 62.9091 230.571 62.9091V66.1818C230.571 66.1818 230.571 67.6364 231.859 67.6364C233.146 67.6364 233.146 66.1818 233.146 66.1818Z" fill="#191919"/>
<path d="M237.008 64V65.0909V67.2727L237.56 67.8182L240.135 67.8182L244.18 67.8182L246.203 67.8182V61.2727H237.56L237.008 61.8182V64Z" fill="#191919"/>
<path d="M251.537 61.2727C255.583 61.2727 255.583 67.8182 251.537 67.8182V61.2727Z" fill="#191919"/>
<path d="M244.18 67.8182L240.135 67.8182C240.135 69 241.146 69.5909 242.157 69.5909C243.169 69.5909 244.18 69 244.18 67.8182Z" fill="#191919"/>
<path d="M237.008 64V65.0909M237.008 64V67.2727M237.008 64V61.8182L237.56 61.2727H246.203M237.008 64L233.146 62.9091M237.008 65.0909V67.2727M237.008 65.0909L233.146 66.1818M237.008 67.2727L237.56 67.8182L240.135 67.8182M233.146 62.9091V66.1818M233.146 62.9091C233.146 62.9091 233.146 61.4545 231.859 61.4545C230.571 61.4545 230.571 62.9091 230.571 62.9091V66.1818C230.571 66.1818 230.571 67.6364 231.859 67.6364C233.146 67.6364 233.146 66.1818 233.146 66.1818M246.203 61.2727V67.8182M246.203 61.2727C246.203 61.2727 246.02 60 246.939 60H250.985C251.537 60 251.537 61.2727 251.537 61.2727M246.203 67.8182C246.203 67.8182 246.02 69.0909 246.939 69.0909H250.985C251.537 69.0909 251.537 67.8182 251.537 67.8182M246.203 67.8182L244.18 67.8182M251.537 61.2727C255.583 61.2727 255.583 67.8182 251.537 67.8182M251.537 61.2727V67.8182M240.135 67.8182L244.18 67.8182M240.135 67.8182C240.135 69 241.146 69.5909 242.157 69.5909M244.18 67.8182C244.18 69 243.169 69.5909 242.157 69.5909M242.157 69.5909L235.721 84M242.157 69.5909V81.8182M242.157 69.5909L248.41 84" stroke="#00CCFF"/>
<path d="M282.919 65.6757C279.45 65.6757 276.638 68.5072 276.638 72C276.638 75.4928 279.45 78.3243 282.919 78.3243C286.389 78.3243 289.201 75.4928 289.201 72C289.201 68.5072 286.389 65.6757 282.919 65.6757Z" fill="#FF00E5"/>
<path fill-rule="evenodd" clip-rule="evenodd" d="M280.02 64.7027L282.919 60L285.98 64.7027L291.456 63.4054L290.168 68.9189L295 72L290.168 75.0811L291.456 80.4324L285.98 79.2973L282.919 84L280.02 79.2973L274.544 80.4324L275.671 75.0811L271 72L275.671 68.9189L274.544 63.4054L280.02 64.7027ZM276.638 72C276.638 68.5072 279.45 65.6757 282.919 65.6757C286.389 65.6757 289.201 68.5072 289.201 72C289.201 75.4928 286.389 78.3243 282.919 78.3243C279.45 78.3243 276.638 75.4928 276.638 72Z" fill="#191919"/>
<path d="M282.919 65.6757C279.45 65.6757 276.638 68.5072 276.638 72C276.638 75.4928 279.45 78.3243 282.919 78.3243C286.389 78.3243 289.201 75.4928 289.201 72C289.201 68.5072 286.389 65.6757 282.919 65.6757Z" stroke="#FF00E5"/>
<path fill-rule="evenodd" clip-rule="evenodd" d="M280.02 64.7027L282.919 60L285.98 64.7027L291.456 63.4054L290.168 68.9189L295 72L290.168 75.0811L291.456 80.4324L285.98 79.2973L282.919 84L280.02 79.2973L274.544 80.4324L275.671 75.0811L271 72L275.671 68.9189L274.544 63.4054L280.02 64.7027ZM276.638 72C276.638 68.5072 279.45 65.6757 282.919 65.6757C286.389 65.6757 289.201 68.5072 289.201 72C289.201 75.4928 286.389 78.3243 282.919 78.3243C279.45 78.3243 276.638 75.4928 276.638 72Z" stroke="#FF00E5"/>
<defs>
<linearGradient id="paint0_linear_396_14402" x1="19.5491" y1="55.993" x2="275.598" y2="6.67515" gradientUnits="userSpaceOnUse">
<stop stop-color="#191919"/>
<stop offset="1" stop-color="#868686"/>
</linearGradient>
</defs>
</svg>
