<svg width="26" height="26" viewBox="0 0 26 26" fill="none" xmlns="http://www.w3.org/2000/svg">
<path d="M3.57471 7.18181V3.90909C3.57471 3.90909 3.57471 2.45454 2.28736 2.45454C1 2.45454 1 3.90909 1 3.90909V7.18181C1 7.18181 1 8.63635 2.28736 8.63635C3.57471 8.63635 3.57471 7.18181 3.57471 7.18181Z" fill="#00CCFF"/>
<path d="M7.43678 6.0909V4.99999L3.57471 3.90909V7.18181L7.43678 6.0909Z" fill="#191919"/>
<path d="M7.43678 4.99999V6.0909V8.27272L7.98851 8.81817L10.5632 8.81821L14.6092 8.81819L16.6322 8.81817V2.27273H7.98851L7.43678 2.81818V4.99999Z" fill="#00CCFF"/>
<path d="M14.6092 8.81819L10.5632 8.81821C10.5632 10 11.5747 10.5909 12.5862 10.5909C13.5977 10.5909 14.6092 10 14.6092 8.81819Z" fill="#00CCFF"/>
<path fill-rule="evenodd" clip-rule="evenodd" d="M21.9655 2.27273V8.81817C26.0115 8.81817 26.0115 2.27273 21.9655 2.27273Z" fill="#00CCFF"/>
<path d="M16.6322 2.27273V8.81817C16.6322 8.81817 16.4483 10.0909 17.3678 10.0909H21.4138C21.9655 10.0909 21.9655 8.81817 21.9655 8.81817V2.27273C21.9655 2.27273 21.9655 1 21.4138 1H17.3678C16.4483 1 16.6322 2.27273 16.6322 2.27273Z" fill="#191919"/>
<path d="M7.43678 4.99999V6.0909M7.43678 4.99999V8.27272M7.43678 4.99999V2.81818L7.98851 2.27273H16.6322M7.43678 4.99999L3.57471 3.90909M7.43678 6.0909V8.27272M7.43678 6.0909L3.57471 7.18181M7.43678 8.27272L7.98851 8.81817L10.5632 8.81821M3.57471 3.90909V7.18181M3.57471 3.90909C3.57471 3.90909 3.57471 2.45454 2.28736 2.45454C1 2.45454 1 3.90909 1 3.90909V7.18181C1 7.18181 1 8.63635 2.28736 8.63635C3.57471 8.63635 3.57471 7.18181 3.57471 7.18181M16.6322 2.27273V8.81817M16.6322 2.27273C16.6322 2.27273 16.4483 1 17.3678 1H21.4138C21.9655 1 21.9655 2.27273 21.9655 2.27273M16.6322 8.81817C16.6322 8.81817 16.4483 10.0909 17.3678 10.0909H21.4138C21.9655 10.0909 21.9655 8.81817 21.9655 8.81817M16.6322 8.81817L14.6092 8.81819M21.9655 2.27273C26.0115 2.27273 26.0115 8.81817 21.9655 8.81817M21.9655 2.27273V8.81817M10.5632 8.81821L14.6092 8.81819M10.5632 8.81821C10.5632 10 11.5747 10.5909 12.5862 10.5909M14.6092 8.81819C14.6092 10 13.5977 10.5909 12.5862 10.5909M12.5862 10.5909L6.14943 25M12.5862 10.5909V22.8182M12.5862 10.5909L18.8391 25" stroke="#191919"/>
</svg>
