<svg width="50" height="50" viewBox="0 0 50 50" fill="none" xmlns="http://www.w3.org/2000/svg">
<path d="M32.613 3.54545V16.6363C32.613 16.6363 32.2529 19.1819 34.0536 19.1818H41.977C43.0575 19.1818 43.0575 16.6363 43.0575 16.6363V3.54545C43.0575 3.54545 43.0575 1 41.977 1H34.0536C32.2529 1 32.613 3.54545 32.613 3.54545Z" fill="#00CCFF"/>
<path d="M14.6054 11.1818V8.99999L7.04215 6.81817V13.3636L14.6054 11.1818Z" fill="#00CCFF"/>
<path d="M7.04215 13.3636V6.81817C7.04215 6.81817 7.04215 3.90909 4.52107 3.90909C2 3.90909 2 6.81817 2 6.81817V13.3636C2 13.3636 2 16.2727 4.52107 16.2727C7.04215 16.2727 7.04215 13.3636 7.04215 13.3636Z" fill="#191919"/>
<path d="M14.6054 8.99999V11.1818V15.5454L15.6858 16.6363L20.728 16.6364L28.6513 16.6364L32.613 16.6363V3.54545H15.6858L14.6054 4.63636V8.99999Z" fill="#191919"/>
<path d="M43.0575 3.54545C50.9808 3.54545 50.9808 16.6363 43.0575 16.6363V3.54545Z" fill="#191919"/>
<path d="M28.6513 16.6364L20.728 16.6364C20.728 19 22.7088 20.1819 24.6897 20.1819C26.6705 20.1819 28.6513 19 28.6513 16.6364Z" fill="#191919"/>
<path d="M14.6054 8.99999V11.1818M14.6054 8.99999V15.5454M14.6054 8.99999V4.63636L15.6858 3.54545H32.613M14.6054 8.99999L7.04215 6.81817M14.6054 11.1818V15.5454M14.6054 11.1818L7.04215 13.3636M14.6054 15.5454L15.6858 16.6363L20.728 16.6364M7.04215 6.81817V13.3636M7.04215 6.81817C7.04215 6.81817 7.04215 3.90909 4.52107 3.90909C2 3.90909 2 6.81817 2 6.81817V13.3636C2 13.3636 2 16.2727 4.52107 16.2727C7.04215 16.2727 7.04215 13.3636 7.04215 13.3636M32.613 3.54545V16.6363M32.613 3.54545C32.613 3.54545 32.2529 1 34.0536 1H41.977C43.0575 1 43.0575 3.54545 43.0575 3.54545M32.613 16.6363C32.613 16.6363 32.2529 19.1819 34.0536 19.1818H41.977C43.0575 19.1818 43.0575 16.6363 43.0575 16.6363M32.613 16.6363L28.6513 16.6364M43.0575 3.54545C50.9808 3.54545 50.9808 16.6363 43.0575 16.6363M43.0575 3.54545V16.6363M20.728 16.6364L28.6513 16.6364M20.728 16.6364C20.728 19 22.7088 20.1819 24.6897 20.1819M28.6513 16.6364C28.6513 19 26.6705 20.1819 24.6897 20.1819M24.6897 20.1819L12.0843 49M24.6897 20.1819V44.6364M24.6897 20.1819L36.9349 49" stroke="#00CCFF" stroke-width="2"/>
</svg>
