<svg width="26" height="26" viewBox="0 0 26 26" fill="none" xmlns="http://www.w3.org/2000/svg">
<g clip-path="url(#clip0_391_9848)">
<path fill-rule="evenodd" clip-rule="evenodd" d="M12.9205 1.00026C6.24939 1.04415 0.913295 6.53062 1.00107 13.1579C1.08768 19.6974 6.33774 24.9564 12.9205 24.9997C14.6763 25.0113 16.3434 24.6476 17.8473 23.9842C16.5759 21.6838 19.1187 19.3154 21.4506 21.5259C23.6085 19.3858 24.9556 16.4301 24.9989 13.1579C25.0873 6.48745 19.6351 0.956092 12.9205 1.00026ZM13.8741 16.1576C13.8302 15.5908 14.2572 15.0959 14.8277 15.0523C15.4403 15.0055 15.9873 15.549 15.9402 16.1576C15.8963 16.7244 15.3982 17.1485 14.8277 17.1049C14.3026 17.0648 13.9145 16.6792 13.8741 16.1576Z" fill="#868686"/>
<path d="M14.8277 15.0523C14.2572 15.0959 13.8302 15.5908 13.8741 16.1576C13.9145 16.6792 14.3026 17.0648 14.8277 17.1049C15.3982 17.1485 15.8963 16.7244 15.9402 16.1576C15.9873 15.549 15.4403 15.0055 14.8277 15.0523Z" fill="#191919"/>
<path d="M17.8473 23.9842C19.1982 23.3883 20.4173 22.5506 21.4506 21.5259C19.1187 19.3154 16.5759 21.6838 17.8473 23.9842Z" fill="#191919"/>
<path d="M4.02069 15.6839C6.08673 19.4733 8.9474 13.6313 4.65639 14.4208M11.1724 6.3683C10.0599 2.10524 4.17961 6.68409 9.42418 8.42089M20.0722 7.47354C12.4438 7.31565 18.3241 17.2628 22.1383 10.7893M17.8473 23.9842C16.3434 24.6476 14.6763 25.0113 12.9205 24.9997C6.33774 24.9564 1.08768 19.6974 1.00107 13.1579C0.913295 6.53062 6.24939 1.04415 12.9205 1.00026C19.6351 0.956092 25.0873 6.48745 24.9989 13.1579C24.9556 16.4301 23.6085 19.3858 21.4506 21.5259M17.8473 23.9842C19.1982 23.3883 20.4173 22.5506 21.4506 21.5259M17.8473 23.9842C16.5759 21.6838 19.1187 19.3154 21.4506 21.5259M11.4902 22.9469C14.033 21.9995 11.3313 19.6312 10.5367 21.9995M14.8277 15.0523C14.2572 15.0959 13.8302 15.5908 13.8741 16.1576C13.9145 16.6792 14.3026 17.0648 14.8277 17.1049C15.3982 17.1485 15.8963 16.7244 15.9402 16.1576C15.9873 15.549 15.4403 15.0055 14.8277 15.0523Z" stroke="#191919"/>
</g>
<defs>
<clipPath id="clip0_391_9848">
<rect width="26" height="26" fill="white"/>
</clipPath>
</defs>
</svg>
