<svg width="50" height="50" viewBox="0 0 50 50" fill="none" xmlns="http://www.w3.org/2000/svg">
<g clip-path="url(#clip0_391_8828)">
<path d="M34.6946 46.9684C37.3964 45.7766 39.8347 44.1012 41.9012 42.0517C37.2374 37.6308 32.1517 42.3675 34.6946 46.9684Z" fill="#868686"/>
<path d="M28.6554 29.1046C27.5143 29.1918 26.6605 30.1815 26.7482 31.3151C26.829 32.3585 27.6052 33.1296 28.6554 33.2098C29.7964 33.297 30.7926 32.4487 30.8803 31.3151C30.9746 30.0979 29.8805 29.011 28.6554 29.1046Z" fill="#868686"/>
<path fill-rule="evenodd" clip-rule="evenodd" d="M24.8411 1.00053C11.4988 1.08829 0.826591 12.0612 1.00213 25.3158C1.17535 38.3948 11.6755 48.9128 24.8411 48.9995C28.3526 49.0226 31.6869 48.2952 34.6946 46.9684C32.1517 42.3675 37.2374 37.6308 41.9012 42.0517C46.217 37.7716 48.9112 31.8602 48.9979 25.3158C49.1746 11.9749 38.2703 0.912185 24.8411 1.00053ZM26.7482 31.3151C26.6605 30.1815 27.5143 29.1918 28.6554 29.1046C29.8805 29.011 30.9746 30.0979 30.8803 31.3151C30.7926 32.4487 29.7964 33.297 28.6554 33.2098C27.6052 33.1296 26.829 32.3585 26.7482 31.3151Z" fill="#191919"/>
<path d="M7.04137 30.3678C11.1735 37.9466 16.8948 26.2626 8.31278 27.8415M21.3447 11.7366C19.1198 3.21048 7.35923 12.3682 17.8484 15.8418M39.1445 13.9471C23.8876 13.6313 35.6481 33.5256 43.2766 20.5785M34.6946 46.9684C31.6869 48.2952 28.3526 49.0226 24.8411 48.9995C11.6755 48.9128 1.17535 38.3948 1.00213 25.3158C0.826591 12.0612 11.4988 1.08829 24.8411 1.00053C38.2703 0.912185 49.1746 11.9749 48.9979 25.3158C48.9112 31.8602 46.217 37.7716 41.9012 42.0517M34.6946 46.9684C37.3964 45.7766 39.8347 44.1012 41.9012 42.0517M34.6946 46.9684C32.1517 42.3675 37.2374 37.6308 41.9012 42.0517M21.9804 44.8938C27.0661 42.9991 21.6626 38.2623 20.0733 42.9991M28.6554 29.1046C27.5143 29.1918 26.6605 30.1815 26.7482 31.3151C26.829 32.3585 27.6052 33.1296 28.6554 33.2098C29.7964 33.297 30.7926 32.4487 30.8803 31.3151C30.9746 30.0979 29.8805 29.011 28.6554 29.1046Z" stroke="#868686" stroke-width="2"/>
</g>
<defs>
<clipPath id="clip0_391_8828">
<rect width="50" height="50" fill="white"/>
</clipPath>
</defs>
</svg>
