<svg width="16" height="26" viewBox="0 0 16 26" fill="none" xmlns="http://www.w3.org/2000/svg">
<g clip-path="url(#clip0_391_9842)">
<path d="M5.21685 8.2C5.21685 7.39921 5.36694 6.84625 5.91966 6.28C6.47239 5.71375 7.01215 5.56 7.79382 5.56C8.57549 5.56 9.11525 5.71375 9.66798 6.28C10.2207 6.84625 10.3708 7.39921 10.3708 8.2C10.3708 9.00079 10.2207 9.55375 9.66798 10.12C9.11525 10.6862 8.57549 10.84 7.79382 10.84C7.01215 10.84 6.47239 10.6862 5.91966 10.12C5.36694 9.55375 5.21685 9.00079 5.21685 8.2Z" fill="#191919"/>
<path fill-rule="evenodd" clip-rule="evenodd" d="M4.98254 2.44C4.58626 2.78102 4.39266 3.00682 4.04546 3.4C2.09391 5.61001 1.81074 9.12758 2.16025 12.52C2.44151 15.2499 3.13247 17.8987 3.69344 19.72C4.14602 21.1893 4.514 22.12 4.514 22.12H6.85674L4.98258 25H11.0736L9.19942 22.12H11.5421C11.5421 22.12 11.8775 21.1893 12.2821 19.72C12.7837 17.8986 13.3917 15.2496 13.5993 12.52C13.8574 9.12608 13.4964 5.60748 11.5421 3.4C11.1944 3.00728 11.0013 2.78102 10.605 2.44C10.0999 2.00529 9.79456 1.77161 9.1994 1.48C8.6774 1.22424 8.3724 1 7.79378 1C7.21516 1 6.91015 1.22424 6.38816 1.48C5.793 1.77161 5.4877 2.00529 4.98254 2.44ZM5.91966 6.28C5.36694 6.84625 5.21685 7.39921 5.21685 8.2C5.21685 9.00079 5.36694 9.55375 5.91966 10.12C6.47239 10.6862 7.01215 10.84 7.79382 10.84C8.57549 10.84 9.11525 10.6862 9.66798 10.12C10.2207 9.55375 10.3708 9.00079 10.3708 8.2C10.3708 7.39921 10.2207 6.84625 9.66798 6.28C9.11525 5.71375 8.57549 5.56 7.79382 5.56C7.01215 5.56 6.47239 5.71375 5.91966 6.28Z" fill="#00FF40"/>
<path d="M2.16025 22.12C2.94024 21.335 3.69344 19.72 3.69344 19.72C3.13247 17.8987 2.44151 15.2499 2.16025 12.52C2.16025 12.52 -0.450317 24.7473 2.16025 22.12Z" fill="#00FF40"/>
<path d="M13.5993 12.52C13.3917 15.2496 12.7837 17.8986 12.2821 19.72C12.2821 19.72 13.0776 21.3417 13.8848 22.12C16.551 24.6906 13.5993 12.52 13.5993 12.52Z" fill="#00FF40"/>
<path d="M3.69344 19.72C4.14602 21.1893 4.514 22.12 4.514 22.12H6.85674L4.98258 25H11.0736L9.19942 22.12H11.5421C11.5421 22.12 11.8775 21.1893 12.2821 19.72M3.69344 19.72C3.69344 19.72 2.94024 21.335 2.16025 22.12C-0.450317 24.7473 2.16025 12.52 2.16025 12.52M3.69344 19.72C3.13247 17.8987 2.44151 15.2499 2.16025 12.52M2.16025 12.52C1.81074 9.12758 2.09391 5.61001 4.04546 3.4C4.39266 3.00682 4.58626 2.78102 4.98254 2.44C5.4877 2.00529 5.793 1.77161 6.38816 1.48C6.91015 1.22424 7.21516 1 7.79378 1C8.3724 1 8.6774 1.22424 9.1994 1.48C9.79456 1.77161 10.0999 2.00529 10.605 2.44C11.0013 2.78102 11.1944 3.00728 11.5421 3.4C13.4964 5.60748 13.8574 9.12608 13.5993 12.52M13.5993 12.52C13.3917 15.2496 12.7837 17.8986 12.2821 19.72M13.5993 12.52C13.5993 12.52 16.551 24.6906 13.8848 22.12C13.0776 21.3417 12.2821 19.72 12.2821 19.72M7.79382 5.56C7.01215 5.56 6.47239 5.71375 5.91966 6.28C5.36694 6.84625 5.21685 7.39921 5.21685 8.2C5.21685 9.00079 5.36694 9.55375 5.91966 10.12C6.47239 10.6862 7.01215 10.84 7.79382 10.84C8.57549 10.84 9.11525 10.6862 9.66798 10.12C10.2207 9.55375 10.3708 9.00079 10.3708 8.2C10.3708 7.39921 10.2207 6.84625 9.66798 6.28C9.11525 5.71375 8.57549 5.56 7.79382 5.56Z" stroke="#191919"/>
</g>
<defs>
<clipPath id="clip0_391_9842">
<rect width="16" height="26" fill="white"/>
</clipPath>
</defs>
</svg>
