<svg width="50" height="50" viewBox="0 0 50 50" fill="none" xmlns="http://www.w3.org/2000/svg">
<g clip-path="url(#clip0_391_8825)">
<path d="M19.5 15C19.5 13.3317 19.8203 12.1797 21 11C22.1797 9.82032 23.3317 9.5 25 9.5C26.6683 9.5 27.8203 9.82032 29 11C30.1797 12.1797 30.5 13.3317 30.5 15C30.5 16.6683 30.1797 17.8203 29 19C27.8203 20.1797 26.6683 20.5 25 20.5C23.3317 20.5 22.1797 20.1797 21 19C19.8203 17.8203 19.5 16.6683 19.5 15Z" fill="#00FF40"/>
<path d="M12.9763 44C14.641 42.3646 16.2486 39 16.2486 39C15.0513 35.2057 13.5766 29.6873 12.9763 24C12.9763 24 7.4046 49.4735 12.9763 44Z" fill="#191919"/>
<path fill-rule="evenodd" clip-rule="evenodd" d="M18.9999 3C18.1541 3.71045 17.7409 4.18088 16.9999 5C12.8347 9.60419 12.2304 16.9325 12.9763 24C13.5766 29.6873 15.0513 35.2057 16.2486 39C17.2145 42.0611 17.9999 44 17.9999 44H23L19 50H32L28 44H32.9999C32.9999 44 33.7157 42.061 34.5793 39C35.6498 35.2055 36.9475 29.6867 37.3905 24C37.9414 16.9293 37.171 9.59891 32.9999 5C32.2578 4.18182 31.8457 3.71045 30.9999 3C29.9218 2.09435 29.2702 1.60751 27.9999 1C26.8858 0.467176 26.2349 0 24.9999 0C23.765 0 23.114 0.467176 21.9999 1C20.7297 1.60751 20.0781 2.09435 18.9999 3ZM21 11C19.8203 12.1797 19.5 13.3317 19.5 15C19.5 16.6683 19.8203 17.8203 21 19C22.1797 20.1797 23.3317 20.5 25 20.5C26.6683 20.5 27.8203 20.1797 29 19C30.1797 17.8203 30.5 16.6683 30.5 15C30.5 13.3317 30.1797 12.1797 29 11C27.8203 9.82032 26.6683 9.5 25 9.5C23.3317 9.5 22.1797 9.82032 21 11Z" fill="#191919"/>
<path d="M37.3905 24C36.9475 29.6867 35.6498 35.2055 34.5793 39C34.5793 39 36.277 42.3786 37.9999 44C43.6903 49.3554 37.3905 24 37.3905 24Z" fill="#191919"/>
<path d="M16.2486 39C17.2145 42.0611 17.9999 44 17.9999 44H23L19 50H32L28 44H32.9999C32.9999 44 33.7157 42.061 34.5793 39M16.2486 39C16.2486 39 14.641 42.3646 12.9763 44C7.4046 49.4735 12.9763 24 12.9763 24M16.2486 39C15.0513 35.2057 13.5766 29.6873 12.9763 24M12.9763 24C12.2304 16.9325 12.8347 9.60419 16.9999 5C17.7409 4.18088 18.1541 3.71045 18.9999 3C20.0781 2.09435 20.7297 1.60751 21.9999 1C23.114 0.467176 23.765 0 24.9999 0C26.2349 0 26.8858 0.467176 27.9999 1C29.2702 1.60751 29.9218 2.09435 30.9999 3C31.8457 3.71045 32.2578 4.18182 32.9999 5C37.171 9.59891 37.9414 16.9293 37.3905 24M37.3905 24C36.9475 29.6867 35.6498 35.2055 34.5793 39M37.3905 24C37.3905 24 43.6903 49.3554 37.9999 44C36.277 42.3786 34.5793 39 34.5793 39M25 9.5C23.3317 9.5 22.1797 9.82032 21 11C19.8203 12.1797 19.5 13.3317 19.5 15C19.5 16.6683 19.8203 17.8203 21 19C22.1797 20.1797 23.3317 20.5 25 20.5C26.6683 20.5 27.8203 20.1797 29 19C30.1797 17.8203 30.5 16.6683 30.5 15C30.5 13.3317 30.1797 12.1797 29 11C27.8203 9.82032 26.6683 9.5 25 9.5Z" stroke="#00FF40" stroke-width="2"/>
</g>
<defs>
<clipPath id="clip0_391_8825">
<rect width="50" height="50" fill="white"/>
</clipPath>
</defs>
</svg>
