<svg width="50" height="50" viewBox="0 0 50 50" fill="none" xmlns="http://www.w3.org/2000/svg">
<path d="M21.5 33V20H28.5V33H21.5Z" fill="#FF0000"/>
<path d="M25.1832 38.374L22.2519 41.3053C22.2519 41.3053 19.7638 43.2245 19.687 44.9695C19.605 46.8334 20.6692 48.0122 22.2519 49H28.1145C29.5863 47.9761 30.3866 46.7609 30.313 44.9695C30.2445 43.3021 29.1439 42.6187 28.1145 41.3053L25.1832 38.374Z" fill="#FF0000"/>
<path d="M26.9584 12.5817C31.062 11.9218 34.7099 8.21473 34.7099 1H15.6565C15.6564 7.35327 19.2366 11.2968 23.2932 12.3829C24.5 12.706 25.749 12.7762 26.9584 12.5817Z" fill="#FF0000"/>
<path d="M7.22901 16.3893V10.1603H3.56489L1 12.7252V16.3893H7.22901Z" fill="#191919"/>
<path d="M13.458 16.3893V12.7252L10.8931 10.1603H7.22901V16.3893H13.458Z" fill="#191919"/>
<path d="M1 23.3511H7.22901V16.3893H1V23.3511Z" fill="#191919"/>
<path d="M13.458 23.3511V16.3893H7.22901V23.3511H13.458Z" fill="#191919"/>
<path d="M1 30.313H7.22901V23.3511H1V30.313Z" fill="#191919"/>
<path d="M13.458 30.313V23.3511H7.22901V30.313H13.458Z" fill="#191919"/>
<path d="M1 33.9771L3.56489 36.1756H7.22901V30.313H1V33.9771Z" fill="#191919"/>
<path d="M7.22901 36.1756H10.8931L13.458 33.9771V30.313H7.22901V36.1756Z" fill="#191919"/>
<path fill-rule="evenodd" clip-rule="evenodd" d="M25.1832 15.6565H18.9542L16.7557 18.2214V28.4809V36.1756L18.9542 38.374H25.1832H31.4122L33.6107 36.1756V28.4809V18.2214L31.7786 15.6565H25.1832ZM21.5 20V33H28.5V20H21.5Z" fill="#191919"/>
<path d="M38.7405 10.1603L36.542 12.7252V16.3893H42.771V10.1603H38.7405Z" fill="#191919"/>
<path d="M49 12.7252L46.8015 10.1603H42.771V16.3893H49V12.7252Z" fill="#191919"/>
<path d="M36.542 23.3511H42.771V16.3893H36.542V23.3511Z" fill="#191919"/>
<path d="M49 23.3511V16.3893H42.771V23.3511H49Z" fill="#191919"/>
<path d="M36.542 23.3511V30.313H42.771V23.3511H36.542Z" fill="#191919"/>
<path d="M49 30.313V23.3511H42.771V30.313H49Z" fill="#191919"/>
<path d="M36.542 33.9771L38.7405 36.1756H42.771V30.313H36.542V33.9771Z" fill="#191919"/>
<path d="M46.8015 36.1756L49 33.9771V30.313H42.771V36.1756H46.8015Z" fill="#191919"/>
<path d="M25.1832 15.6565H18.9542L16.7557 18.2214V28.4809M25.1832 15.6565H31.7786L33.6107 18.2214V28.4809M25.1832 15.6565L26.9584 12.5817M25.1832 15.6565L23.2932 12.3829M25.1832 38.374H18.9542L16.7557 36.1756V28.4809M25.1832 38.374H31.4122L33.6107 36.1756V28.4809M25.1832 38.374L22.2519 41.3053C22.2519 41.3053 19.7638 43.2245 19.687 44.9695C19.605 46.8334 20.6692 48.0122 22.2519 49H28.1145C29.5863 47.9761 30.3866 46.7609 30.313 44.9695C30.2445 43.3021 29.1439 42.6187 28.1145 41.3053L25.1832 38.374ZM26.9584 12.5817C31.062 11.9218 34.7099 8.21473 34.7099 1H15.6565C15.6564 7.35327 19.2366 11.2968 23.2932 12.3829M26.9584 12.5817C25.749 12.7762 24.5 12.706 23.2932 12.3829M49 23.3511V30.313M49 23.3511V16.3893M49 23.3511H42.771M36.542 23.3511V30.313M36.542 23.3511V16.3893M36.542 23.3511L33.6107 28.4809M36.542 23.3511H42.771M36.542 30.313V33.9771L38.7405 36.1756H42.771M36.542 30.313H42.771M49 30.313V33.9771L46.8015 36.1756H42.771M49 30.313H42.771M42.771 10.1603H46.8015L49 12.7252V16.3893M42.771 10.1603H38.7405L36.542 12.7252V16.3893M42.771 10.1603V16.3893M42.771 36.1756V30.313M36.542 16.3893H42.771M49 16.3893H42.771M13.458 23.3511V16.3893M13.458 23.3511V30.313M13.458 23.3511L16.7557 28.4809M13.458 23.3511H7.22901M13.458 16.3893V12.7252L10.8931 10.1603H7.22901M13.458 16.3893H7.22901M7.22901 10.1603H3.56489L1 12.7252V16.3893M7.22901 10.1603V16.3893M7.22901 36.1756H10.8931L13.458 33.9771V30.313M7.22901 36.1756H3.56489L1 33.9771V30.313M7.22901 36.1756V30.313M13.458 30.313H7.22901M1 30.313V23.3511M1 30.313H7.22901M1 23.3511V16.3893M1 23.3511H7.22901M1 16.3893H7.22901M7.22901 16.3893V23.3511M7.22901 23.3511V30.313M42.771 16.3893V23.3511M42.771 23.3511V30.313M21.5 33V20H28.5V33H21.5Z" stroke="#FF0000" stroke-width="2"/>
</svg>
