<svg width="26" height="26" viewBox="0 0 26 26" fill="none" xmlns="http://www.w3.org/2000/svg">
<path d="M13.9792 6.79085C16.031 6.46091 17.855 4.60737 17.855 1H8.32824C8.32822 4.17664 10.1183 6.1484 12.1466 6.69144C12.75 6.85299 13.3745 6.8881 13.9792 6.79085Z" fill="#191919"/>
<path fill-rule="evenodd" clip-rule="evenodd" d="M13.0916 8.32824H9.9771L8.87786 9.61069V14.7405V18.5878L9.9771 19.687H13.0916H16.2061L17.3053 18.5878V14.7405V9.61069L16.3893 8.32824H13.0916ZM11.0763 10.1603V17.855H14.9237V10.1603H11.0763Z" fill="#FF0000"/>
<path d="M11.0763 17.855V10.1603H14.9237V17.855H11.0763Z" fill="#191919"/>
<path d="M13.0916 19.687L11.626 21.1527C11.626 21.1527 10.3819 22.1122 10.3435 22.9847C10.3025 23.9167 10.8346 24.5061 11.626 25H14.5573C15.2932 24.4881 15.6933 23.8805 15.6565 22.9847C15.6222 22.1511 15.072 21.8094 14.5573 21.1527L13.0916 19.687Z" fill="#191919"/>
<path d="M4.1145 15.6565V18.5878H5.94657L7.22901 17.4886V15.6565H4.1145Z" fill="#FF0000"/>
<path d="M1 17.4886L2.28244 18.5878H4.1145V15.6565H1V17.4886Z" fill="#FF0000"/>
<path d="M1 12.1756V15.6565H4.1145V12.1756H1Z" fill="#FF0000"/>
<path d="M7.22901 15.6565V12.1756H4.1145V15.6565H7.22901Z" fill="#FF0000"/>
<path d="M7.22901 12.1756V8.69466H4.1145V12.1756H7.22901Z" fill="#FF0000"/>
<path d="M1 8.69466V12.1756H4.1145V8.69466H1Z" fill="#FF0000"/>
<path d="M4.1145 5.58015H2.28244L1 6.8626V8.69466H4.1145V5.58015Z" fill="#FF0000"/>
<path d="M7.22901 8.69466V6.8626L5.94657 5.58015H4.1145V8.69466H7.22901Z" fill="#FF0000"/>
<path d="M19.8702 5.58015L18.771 6.8626V8.69466H21.8855V5.58015H19.8702Z" fill="#FF0000"/>
<path d="M25 6.8626L23.9008 5.58015H21.8855V8.69466H25V6.8626Z" fill="#FF0000"/>
<path d="M18.771 12.1756H21.8855V8.69466H18.771V12.1756Z" fill="#FF0000"/>
<path d="M25 12.1756V8.69466H21.8855V12.1756H25Z" fill="#FF0000"/>
<path d="M25 15.6565V12.1756H21.8855V15.6565H25Z" fill="#FF0000"/>
<path d="M18.771 12.1756V15.6565H21.8855V12.1756H18.771Z" fill="#FF0000"/>
<path d="M18.771 17.4886L19.8702 18.5878H21.8855V15.6565H18.771V17.4886Z" fill="#FF0000"/>
<path d="M23.9008 18.5878L25 17.4886V15.6565H21.8855V18.5878H23.9008Z" fill="#FF0000"/>
<path d="M13.0916 8.32824H9.9771L8.87786 9.61069V14.7405M13.0916 8.32824H16.3893L17.3053 9.61069V14.7405M13.0916 8.32824L13.9792 6.79085M13.0916 8.32824L12.1466 6.69144M13.0916 19.687H9.9771L8.87786 18.5878V14.7405M13.0916 19.687H16.2061L17.3053 18.5878V14.7405M13.0916 19.687L11.626 21.1527C11.626 21.1527 10.3819 22.1122 10.3435 22.9847C10.3025 23.9167 10.8346 24.5061 11.626 25H14.5573C15.2932 24.4881 15.6933 23.8805 15.6565 22.9847C15.6222 22.1511 15.072 21.8094 14.5573 21.1527L13.0916 19.687ZM13.9792 6.79085C16.031 6.46091 17.855 4.60737 17.855 1H8.32824C8.32822 4.17664 10.1183 6.1484 12.1466 6.69144M13.9792 6.79085C13.3745 6.8881 12.75 6.85299 12.1466 6.69144M25 12.1756V15.6565M25 12.1756V8.69466M25 12.1756H21.8855M18.771 12.1756V15.6565M18.771 12.1756V8.69466M18.771 12.1756L17.3053 14.7405M18.771 12.1756H21.8855M18.771 15.6565V17.4886L19.8702 18.5878H21.8855M18.771 15.6565H21.8855M25 15.6565V17.4886L23.9008 18.5878H21.8855M25 15.6565H21.8855M21.8855 5.58015H23.9008L25 6.8626V8.69466M21.8855 5.58015H19.8702L18.771 6.8626V8.69466M21.8855 5.58015V8.69466M21.8855 18.5878V15.6565M18.771 8.69466H21.8855M25 8.69466H21.8855M7.22901 12.1756V8.69466M7.22901 12.1756V15.6565M7.22901 12.1756H4.1145M7.22901 12.1756L8.87786 14.7405M7.22901 8.69466V6.8626L5.94657 5.58015H4.1145M7.22901 8.69466H4.1145M4.1145 5.58015H2.28244L1 6.8626V8.69466M4.1145 5.58015V8.69466M4.1145 18.5878H5.94657L7.22901 17.4886V15.6565M4.1145 18.5878H2.28244L1 17.4886V15.6565M4.1145 18.5878V15.6565M7.22901 15.6565H4.1145M1 15.6565V12.1756M1 15.6565H4.1145M1 12.1756V8.69466M1 12.1756H4.1145M1 8.69466H4.1145M4.1145 15.6565V12.1756M4.1145 12.1756V8.69466M21.8855 8.69466V12.1756M21.8855 12.1756V15.6565M11.0763 17.855V10.1603H14.9237V17.855H11.0763Z" stroke="#191919"/>
</svg>
