<svg width="53" height="52" viewBox="0 0 53 52" fill="none" xmlns="http://www.w3.org/2000/svg">
<path d="M25.8775 25.4623L32.0489 14.4909L37.8775 25.4623L50.5632 27.8623L41.9918 37.4623L43.7061 49.1195L32.0489 44.6623L20.3918 49.8052L21.7632 37.4623L13.5346 27.8623L25.8775 25.4623Z" fill="#FFF200"/>
<path d="M4.79177 11.4052L2.39177 4.89089L8.90605 5.91946L14.3918 1.80518L15.4203 8.66232L21.2489 12.0909L15.4203 15.5195L13.7061 21.6909L8.5632 16.8909L1.70605 17.5766L4.79177 11.4052Z" fill="#FFF200"/>
<path d="M5.99177 40.2052V35.748L10.1061 37.8052L14.9061 36.4337L13.5346 41.2337L16.2775 44.3195L11.8203 45.348L9.07748 48.7766L7.02034 44.6623L2.5632 43.2909L5.99177 40.2052Z" fill="#FFF200"/>
<path d="M25.8775 25.4623L32.0489 14.4909L37.8775 25.4623L50.5632 27.8623L41.9918 37.4623L43.7061 49.1195L32.0489 44.6623L20.3918 49.8052L21.7632 37.4623L13.5346 27.8623L25.8775 25.4623Z" stroke="#FFF200" stroke-width="2"/>
<path d="M4.79177 11.4052L2.39177 4.89089L8.90605 5.91946L14.3918 1.80518L15.4203 8.66232L21.2489 12.0909L15.4203 15.5195L13.7061 21.6909L8.5632 16.8909L1.70605 17.5766L4.79177 11.4052Z" stroke="#FFF200" stroke-width="2"/>
<path d="M5.99177 40.2052V35.748L10.1061 37.8052L14.9061 36.4337L13.5346 41.2337L16.2775 44.3195L11.8203 45.348L9.07748 48.7766L7.02034 44.6623L2.5632 43.2909L5.99177 40.2052Z" stroke="#FFF200" stroke-width="2"/>
</svg>
