<svg width="27" height="27" viewBox="0 0 27 27" fill="none" xmlns="http://www.w3.org/2000/svg">
<path d="M3.17655 20.8782V18.6497L5.1976 19.6782L7.5555 18.9925L6.88182 21.3925L8.22918 22.9354L6.03971 23.4497L4.69234 25.1639L3.68182 23.1068L1.49234 22.4211L3.17655 20.8782Z" fill="#191919"/>
<path d="M12.945 13.5068L15.9766 8.02108L18.8397 13.5068L25.0713 14.7068L20.8608 19.5068L21.7029 25.3354L15.9766 23.1068L10.2502 25.6782L10.9239 19.5068L6.88182 14.7068L12.945 13.5068Z" fill="#FFF200"/>
<path d="M2.58708 6.47822L1.40813 3.22108L4.60813 3.73537L7.30287 1.67822L7.80813 5.10679L10.6713 6.82108L7.80813 8.53537L6.96603 11.6211L4.43971 9.22108L1.07129 9.56394L2.58708 6.47822Z" fill="#191919"/>
<path d="M3.17655 20.8782V18.6497L5.1976 19.6782L7.5555 18.9925L6.88182 21.3925L8.22918 22.9354L6.03971 23.4497L4.69234 25.1639L3.68182 23.1068L1.49234 22.4211L3.17655 20.8782Z" stroke="#191919"/>
<path d="M12.945 13.5068L15.9766 8.02108L18.8397 13.5068L25.0713 14.7068L20.8608 19.5068L21.7029 25.3354L15.9766 23.1068L10.2502 25.6782L10.9239 19.5068L6.88182 14.7068L12.945 13.5068Z" stroke="#191919"/>
<path d="M2.58708 6.47822L1.40813 3.22108L4.60813 3.73537L7.30287 1.67822L7.80813 5.10679L10.6713 6.82108L7.80813 8.53537L6.96603 11.6211L4.43971 9.22108L1.07129 9.56394L2.58708 6.47822Z" stroke="#191919"/>
</svg>
