<svg width="50" height="50" viewBox="0 0 50 50" fill="none" xmlns="http://www.w3.org/2000/svg">
<g clip-path="url(#clip0_391_8827)">
<path d="M25.3356 12.3514C18.2522 12.3514 12.5101 18.0143 12.5101 25C12.5101 31.9857 18.2522 37.6487 25.3356 37.6487C32.4189 37.6487 38.1611 31.9857 38.1611 25C38.1611 18.0143 32.4189 12.3514 25.3356 12.3514Z" fill="#FF00E5"/>
<path fill-rule="evenodd" clip-rule="evenodd" d="M19.4161 10.4054L25.3356 1L31.5839 10.4054L42.7651 7.81081L40.1342 18.8378L50 25L40.1342 31.1622L42.7651 41.8649L31.5839 39.5946L25.3356 49L19.4161 39.5946L8.2349 41.8649L10.5369 31.1622L1 25L10.5369 18.8378L8.2349 7.81081L19.4161 10.4054ZM12.5101 25C12.5101 18.0143 18.2522 12.3514 25.3356 12.3514C32.4189 12.3514 38.1611 18.0143 38.1611 25C38.1611 31.9857 32.4189 37.6487 25.3356 37.6487C18.2522 37.6487 12.5101 31.9857 12.5101 25Z" fill="#191919"/>
<path d="M25.3356 12.3514C18.2522 12.3514 12.5101 18.0143 12.5101 25C12.5101 31.9857 18.2522 37.6487 25.3356 37.6487C32.4189 37.6487 38.1611 31.9857 38.1611 25C38.1611 18.0143 32.4189 12.3514 25.3356 12.3514Z" stroke="#FF00E5" stroke-width="2"/>
<path fill-rule="evenodd" clip-rule="evenodd" d="M19.4161 10.4054L25.3356 1L31.5839 10.4054L42.7651 7.81081L40.1342 18.8378L50 25L40.1342 31.1622L42.7651 41.8649L31.5839 39.5946L25.3356 49L19.4161 39.5946L8.2349 41.8649L10.5369 31.1622L1 25L10.5369 18.8378L8.2349 7.81081L19.4161 10.4054ZM12.5101 25C12.5101 18.0143 18.2522 12.3514 25.3356 12.3514C32.4189 12.3514 38.1611 18.0143 38.1611 25C38.1611 31.9857 32.4189 37.6487 25.3356 37.6487C18.2522 37.6487 12.5101 31.9857 12.5101 25Z" stroke="#FF00E5" stroke-width="2"/>
</g>
<defs>
<clipPath id="clip0_391_8827">
<rect width="50" height="50" fill="white"/>
</clipPath>
</defs>
</svg>
