<svg width="27" height="26" viewBox="0 0 27 26" fill="none" xmlns="http://www.w3.org/2000/svg">
<g clip-path="url(#clip0_391_9846)">
<path d="M13.4195 6.67568C9.95008 6.67568 7.13758 9.50717 7.13758 13C7.13758 16.4928 9.95008 19.3243 13.4195 19.3243C16.8889 19.3243 19.7013 16.4928 19.7013 13C19.7013 9.50717 16.8889 6.67568 13.4195 6.67568Z" fill="#191919"/>
<path fill-rule="evenodd" clip-rule="evenodd" d="M10.5201 5.7027L13.4195 1L16.4799 5.7027L21.9564 4.40541L20.6678 9.91892L25.5 13L20.6678 16.0811L21.9564 21.4324L16.4799 20.2973L13.4195 25L10.5201 20.2973L5.04362 21.4324L6.17114 16.0811L1.5 13L6.17114 9.91892L5.04362 4.40541L10.5201 5.7027ZM7.13758 13C7.13758 9.50717 9.95008 6.67568 13.4195 6.67568C16.8889 6.67568 19.7013 9.50717 19.7013 13C19.7013 16.4928 16.8889 19.3243 13.4195 19.3243C9.95008 19.3243 7.13758 16.4928 7.13758 13Z" fill="#FF00E5"/>
<path d="M13.4195 6.67568C9.95008 6.67568 7.13758 9.50717 7.13758 13C7.13758 16.4928 9.95008 19.3243 13.4195 19.3243C16.8889 19.3243 19.7013 16.4928 19.7013 13C19.7013 9.50717 16.8889 6.67568 13.4195 6.67568Z" stroke="#191919"/>
<path fill-rule="evenodd" clip-rule="evenodd" d="M10.5201 5.7027L13.4195 1L16.4799 5.7027L21.9564 4.40541L20.6678 9.91892L25.5 13L20.6678 16.0811L21.9564 21.4324L16.4799 20.2973L13.4195 25L10.5201 20.2973L5.04362 21.4324L6.17114 16.0811L1.5 13L6.17114 9.91892L5.04362 4.40541L10.5201 5.7027ZM7.13758 13C7.13758 9.50717 9.95008 6.67568 13.4195 6.67568C16.8889 6.67568 19.7013 9.50717 19.7013 13C19.7013 16.4928 16.8889 19.3243 13.4195 19.3243C9.95008 19.3243 7.13758 16.4928 7.13758 13Z" stroke="#191919"/>
</g>
<defs>
<clipPath id="clip0_391_9846">
<rect width="27" height="26" fill="white"/>
</clipPath>
</defs>
</svg>
