<svg width="13" height="13" viewBox="0 0 13 13" fill="none" xmlns="http://www.w3.org/2000/svg">
<path d="M9.34383 3.79166C9.34383 3.68392 9.30103 3.58059 9.22484 3.5044C9.14866 3.42822 9.04533 3.38541 8.93758 3.38541C8.82984 3.38541 8.72651 3.42822 8.65032 3.5044C8.57413 3.58059 8.53133 3.68392 8.53133 3.79166V4.46875H7.85425C7.7465 4.46875 7.64317 4.51155 7.56699 4.58774C7.4908 4.66392 7.448 4.76725 7.448 4.875C7.448 4.98274 7.4908 5.08607 7.56699 5.16226C7.64317 5.23845 7.7465 5.28125 7.85425 5.28125H8.53133V5.95833C8.53133 6.06608 8.57413 6.16941 8.65032 6.24559C8.72651 6.32178 8.82984 6.36458 8.93758 6.36458C9.04533 6.36458 9.14866 6.32178 9.22484 6.24559C9.30103 6.16941 9.34383 6.06608 9.34383 5.95833V5.28125H10.0209C10.1287 5.28125 10.232 5.23845 10.3082 5.16226C10.3844 5.08607 10.4272 4.98274 10.4272 4.875C10.4272 4.76725 10.3844 4.66392 10.3082 4.58774C10.232 4.51155 10.1287 4.46875 10.0209 4.46875H9.34383V3.79166Z" fill="#F50D00"/>
<path fill-rule="evenodd" clip-rule="evenodd" d="M12.3228 5.04725C12.3228 3.24567 11.5201 1.90125 10.2699 1.41212C9.11346 0.958749 7.72517 1.29783 6.49992 2.44454C5.27467 1.29783 3.88638 0.958749 2.72992 1.41212C1.47975 1.90125 0.677002 3.24567 0.677002 5.04671C0.677002 6.1945 1.28909 7.32333 2.05121 8.29508C2.82146 9.27712 3.78996 10.1562 4.59813 10.8122L4.67071 10.8718C5.32071 11.3999 5.79088 11.7818 6.49992 11.7818C7.2095 11.7818 7.67858 11.3999 8.32913 10.8718L8.40171 10.8122C9.20988 10.1568 10.1784 9.27712 10.9486 8.29508C11.7108 7.32333 12.3228 6.1945 12.3228 5.04725ZM6.79675 3.29712C7.94075 2.0735 9.12646 1.83679 9.97417 2.16829C10.8235 2.50087 11.5103 3.47371 11.5103 5.04725C11.5103 5.91987 11.0337 6.86942 10.3089 7.7935C9.59175 8.70892 8.67525 9.54417 7.88983 10.1817C7.13529 10.7938 6.89154 10.9687 6.49992 10.9687C6.10829 10.9687 5.86454 10.7938 5.11 10.1812C4.32459 9.54416 3.40809 8.70837 2.69092 7.79404C1.96563 6.86942 1.4895 5.91987 1.4895 5.04725C1.4895 3.47371 2.17634 2.50142 3.02567 2.16829C3.87338 1.83679 5.05908 2.0735 6.20308 3.29712C6.24109 3.3378 6.28705 3.37023 6.33811 3.3924C6.38918 3.41457 6.44425 3.42601 6.49992 3.42601C6.55559 3.42601 6.61066 3.41457 6.66172 3.3924C6.71278 3.37023 6.75875 3.3378 6.79675 3.29712Z" fill="#F50D00"/>
</svg>
