<svg width="53" height="92" viewBox="0 0 53 92" fill="none" xmlns="http://www.w3.org/2000/svg">
<path d="M50.5001 20.875V10.875C50.3114 9.89741 50.1778 9.33501 50 8.37503C49.8085 7.34109 49.6001 6.73852 49 5.87503C48.5273 5.19473 48.1227 4.92145 47.5 4.37503C46.7662 3.73106 46.3331 3.38412 45.5 2.87502C44.7549 2.41967 44.2913 2.2443 43.5 1.87502C31.5001 1.37499 22.0001 1.375 8.5 1.87502C7.70869 2.2443 7.24512 2.41967 6.5 2.87502C5.66693 3.38412 5.151 3.64744 4.5 4.37503C4.03056 4.8997 3.84053 5.25883 3.5 5.87503C2.99139 6.79536 2.69147 7.34109 2.5 8.37503V10.875V19.875M50.5001 20.875H51.5V27.875H50.5M50.5001 20.875L50.5 27.875M50.5 27.875L50.5001 82.875L49.5001 85.875L47.5001 88.375L45.5001 89.875L43.5001 90.375H9.50009L7.50009 89.875L5.50009 88.375L3.50009 85.875L2.5 82.875V33.875M2.5 19.875H1.5V24.875H2.5M2.5 19.875V24.875M2.5 24.875V28.875M2.5 28.875H1.5V33.875H2.5M2.5 28.875V33.875M19.5 6.875H33" stroke="#018021" stroke-width="3" stroke-linecap="round"/>
</svg>
